 0
SECTION
 2
HEADER
 9
$ACADVER
 1
AC1009
 0
ENDSEC
 0
SECTION
 2
TABLES
 0
TABLE
 2
LTYPE
 70
1
 0
LTYPE
 2
CONTINUOUS
 70
64
 3
solid line
 72
65
 73
0
 40
0.0
 0
ENDTAB
 0
TABLE
 2
LAYER
 70
6
 0
LAYER
 2
0
 70
0
 62
7
 6
CONTINUOUS
 0
LAYER
 2
HOUSE
 70
64
 62
19
 6
CONTINUOUS
 0
ENDTAB
 0
ENDSEC
 0
SECTION
 2
BLOCKS
 0
ENDSEC
 0
SECTION
 2
ENTITIES
 0
POLYLINE
 8
HOUSE
 66
1
 10
0.0
 20
0.0
 30
0.0
 70
64
 71
626
 72
598
 0
VERTEX
 8
HOUSE
 10
6.3706
 20
1.6304
 30
3.7116
 70
192
 0
VERTEX
 8
HOUSE
 10
6.3706
 20
0.0436
 30
5.2436
 70
192
 0
VERTEX
 8
HOUSE
 10
6.6933
 20
0.0426
 30
5.7209
 70
192
 0
VERTEX
 8
HOUSE
 10
6.3706
 20
0.0426
 30
5.7209
 70
192
 0
VERTEX
 8
HOUSE
 10
6.6933
 20
-0.185
 30
5.5011
 70
192
 0
VERTEX
 8
HOUSE
 10
6.6933
 20
0.2694
 30
5.502
 70
192
 0
VERTEX
 8
HOUSE
 10
6.3706
 20
-1.9939
 30
3.2764
 70
192
 0
VERTEX
 8
HOUSE
 10
6.3706
 20
0.2704
 30
5.0247
 70
192
 0
VERTEX
 8
HOUSE
 10
6.3706
 20
0.7302
 30
5.0248
 70
192
 0
VERTEX
 8
HOUSE
 10
6.3706
 20
0.7243
 30
4.5864
 70
192
 0
VERTEX
 8
HOUSE
 10
6.3706
 20
1.1782
 30
4.5882
 70
192
 0
VERTEX
 8
HOUSE
 10
6.3706
 20
1.1776
 30
4.1488
 70
192
 0
VERTEX
 8
HOUSE
 10
6.3706
 20
1.631
 30
4.1483
 70
192
 0
VERTEX
 8
HOUSE
 10
6.3706
 20
2.0675
 30
3.7111
 70
192
 0
VERTEX
 8
HOUSE
 10
6.3706
 20
2.0664
 30
3.2906
 70
192
 0
VERTEX
 8
HOUSE
 10
6.3706
 20
2.5292
 30
3.2912
 70
192
 0
VERTEX
 8
HOUSE
 10
6.6933
 20
2.5292
 30
3.2913
 70
192
 0
VERTEX
 8
HOUSE
 10
6.6933
 20
2.0675
 30
3.7111
 70
192
 0
VERTEX
 8
HOUSE
 10
6.6933
 20
1.631
 30
4.1483
 70
192
 0
VERTEX
 8
HOUSE
 10
6.6933
 20
1.1782
 30
4.5882
 70
192
 0
VERTEX
 8
HOUSE
 10
6.6933
 20
0.7302
 30
5.0248
 70
192
 0
VERTEX
 8
HOUSE
 10
6.6933
 20
-0.6236
 30
5.0196
 70
192
 0
VERTEX
 8
HOUSE
 10
6.6933
 20
-1.0852
 30
4.5979
 70
192
 0
VERTEX
 8
HOUSE
 10
6.6933
 20
-1.5356
 30
4.1583
 70
192
 0
VERTEX
 8
HOUSE
 10
6.6933
 20
-1.9941
 30
3.7189
 70
192
 0
VERTEX
 8
HOUSE
 10
6.6933
 20
-2.4426
 30
3.2814
 70
192
 0
VERTEX
 8
HOUSE
 10
6.3706
 20
-2.4426
 30
3.2812
 70
192
 0
VERTEX
 8
HOUSE
 10
6.3706
 20
-1.9941
 30
3.7189
 70
192
 0
VERTEX
 8
HOUSE
 10
6.3706
 20
-1.5372
 30
3.7173
 70
192
 0
VERTEX
 8
HOUSE
 10
6.3706
 20
-1.5356
 30
4.1583
 70
192
 0
VERTEX
 8
HOUSE
 10
6.3706
 20
-1.0812
 30
4.1576
 70
192
 0
VERTEX
 8
HOUSE
 10
6.3706
 20
-1.0852
 30
4.5979
 70
192
 0
VERTEX
 8
HOUSE
 10
6.3706
 20
-0.6256
 30
4.5974
 70
192
 0
VERTEX
 8
HOUSE
 10
6.3706
 20
-0.6236
 30
5.0196
 70
192
 0
VERTEX
 8
HOUSE
 10
6.3706
 20
-0.184
 30
5.0238
 70
192
 0
VERTEX
 8
HOUSE
 10
6.3706
 20
0.2694
 30
5.502
 70
192
 0
VERTEX
 8
HOUSE
 10
6.3706
 20
-0.185
 30
5.5011
 70
192
 0
VERTEX
 8
HOUSE
 10
-5.307
 20
0.0436
 30
5.2436
 70
192
 0
VERTEX
 8
HOUSE
 10
0.5561
 20
-4.6495
 30
5.2482
 70
192
 0
VERTEX
 8
HOUSE
 10
-5.307
 20
0.2713
 30
5.0238
 70
192
 0
VERTEX
 8
HOUSE
 10
-5.307
 20
-0.1832
 30
5.0247
 70
192
 0
VERTEX
 8
HOUSE
 10
-5.6297
 20
2.5298
 30
3.2812
 70
192
 0
VERTEX
 8
HOUSE
 10
-5.307
 20
2.5298
 30
3.2812
 70
192
 0
VERTEX
 8
HOUSE
 10
-5.6297
 20
2.0813
 30
3.7189
 70
192
 0
VERTEX
 8
HOUSE
 10
-5.307
 20
2.0813
 30
3.7189
 70
192
 0
VERTEX
 8
HOUSE
 10
-5.6297
 20
1.6228
 30
4.1583
 70
192
 0
VERTEX
 8
HOUSE
 10
-5.307
 20
1.6228
 30
4.1583
 70
192
 0
VERTEX
 8
HOUSE
 10
-5.6297
 20
1.1724
 30
4.5979
 70
192
 0
VERTEX
 8
HOUSE
 10
-5.307
 20
1.1724
 30
4.5979
 70
192
 0
VERTEX
 8
HOUSE
 10
-5.6297
 20
0.7109
 30
5.0196
 70
192
 0
VERTEX
 8
HOUSE
 10
-5.307
 20
0.7109
 30
5.0196
 70
192
 0
VERTEX
 8
HOUSE
 10
-5.6297
 20
-0.643
 30
5.0248
 70
192
 0
VERTEX
 8
HOUSE
 10
-5.307
 20
-0.643
 30
5.0248
 70
192
 0
VERTEX
 8
HOUSE
 10
-5.6297
 20
-1.091
 30
4.5882
 70
192
 0
VERTEX
 8
HOUSE
 10
-5.307
 20
-1.091
 30
4.5882
 70
192
 0
VERTEX
 8
HOUSE
 10
-5.6297
 20
-1.5438
 30
4.1483
 70
192
 0
VERTEX
 8
HOUSE
 10
-5.307
 20
-1.5438
 30
4.1483
 70
192
 0
VERTEX
 8
HOUSE
 10
-5.6297
 20
-1.9803
 30
3.7111
 70
192
 0
VERTEX
 8
HOUSE
 10
-5.307
 20
-1.9803
 30
3.7111
 70
192
 0
VERTEX
 8
HOUSE
 10
-5.6297
 20
-2.442
 30
3.2912
 70
192
 0
VERTEX
 8
HOUSE
 10
-5.307
 20
-2.442
 30
3.2912
 70
192
 0
VERTEX
 8
HOUSE
 10
-1.6649
 20
-4.6495
 30
3.3735
 70
192
 0
VERTEX
 8
HOUSE
 10
-1.6649
 20
-4.9787
 30
3.3735
 70
192
 0
VERTEX
 8
HOUSE
 10
-1.1732
 20
-4.6495
 30
3.918
 70
192
 0
VERTEX
 8
HOUSE
 10
-1.1732
 20
-4.9787
 30
3.9181
 70
192
 0
VERTEX
 8
HOUSE
 10
-0.6697
 20
-4.6494
 30
4.4438
 70
192
 0
VERTEX
 8
HOUSE
 10
-0.6697
 20
-4.9786
 30
4.444
 70
192
 0
VERTEX
 8
HOUSE
 10
-0.1858
 20
-4.6494
 30
5.0031
 70
192
 0
VERTEX
 8
HOUSE
 10
-0.1858
 20
-4.9786
 30
5.0033
 70
192
 0
VERTEX
 8
HOUSE
 10
1.2879
 20
-4.9786
 30
4.9898
 70
192
 0
VERTEX
 8
HOUSE
 10
1.2879
 20
-4.6494
 30
4.9895
 70
192
 0
VERTEX
 8
HOUSE
 10
1.7867
 20
-4.9786
 30
4.4515
 70
192
 0
VERTEX
 8
HOUSE
 10
1.7867
 20
-4.6494
 30
4.4514
 70
192
 0
VERTEX
 8
HOUSE
 10
2.2962
 20
-4.9787
 30
3.9149
 70
192
 0
VERTEX
 8
HOUSE
 10
2.2962
 20
-4.6495
 30
3.9149
 70
192
 0
VERTEX
 8
HOUSE
 10
2.7716
 20
-4.9787
 30
3.359
 70
192
 0
VERTEX
 8
HOUSE
 10
2.7716
 20
-4.6495
 30
3.359
 70
192
 0
VERTEX
 8
HOUSE
 10
-5.307
 20
2.0811
 30
3.2764
 70
192
 0
VERTEX
 8
HOUSE
 10
-5.307
 20
1.6245
 30
3.7173
 70
192
 0
VERTEX
 8
HOUSE
 10
-5.307
 20
1.1684
 30
4.1576
 70
192
 0
VERTEX
 8
HOUSE
 10
-5.307
 20
-0.637
 30
4.5864
 70
192
 0
VERTEX
 8
HOUSE
 10
-5.307
 20
-1.0904
 30
4.1488
 70
192
 0
VERTEX
 8
HOUSE
 10
-5.307
 20
-1.5431
 30
3.7116
 70
192
 0
VERTEX
 8
HOUSE
 10
-5.307
 20
-1.9791
 30
3.2906
 70
192
 0
VERTEX
 8
HOUSE
 10
-1.1728
 20
-4.6495
 30
3.3744
 70
192
 0
VERTEX
 8
HOUSE
 10
-0.6721
 20
-4.6495
 30
3.917
 70
192
 0
VERTEX
 8
HOUSE
 10
-0.1847
 20
-4.6495
 30
4.4453
 70
192
 0
VERTEX
 8
HOUSE
 10
0.3278
 20
-4.6495
 30
5.0008
 70
192
 0
VERTEX
 8
HOUSE
 10
0.8014
 20
-4.6495
 30
4.9914
 70
192
 0
VERTEX
 8
HOUSE
 10
1.2873
 20
-4.6495
 30
4.4551
 70
192
 0
VERTEX
 8
HOUSE
 10
1.7857
 20
-4.6495
 30
3.9146
 70
192
 0
VERTEX
 8
HOUSE
 10
-5.6297
 20
0.0446
 30
5.7209
 70
192
 0
VERTEX
 8
HOUSE
 10
-5.6297
 20
-0.1822
 30
5.502
 70
192
 0
VERTEX
 8
HOUSE
 10
-5.307
 20
-0.1822
 30
5.502
 70
192
 0
VERTEX
 8
HOUSE
 10
-5.307
 20
0.2722
 30
5.5011
 70
192
 0
VERTEX
 8
HOUSE
 10
-5.6297
 20
0.2722
 30
5.5011
 70
192
 0
VERTEX
 8
HOUSE
 10
0.3308
 20
-4.9783
 30
5.4781
 70
192
 0
VERTEX
 8
HOUSE
 10
0.5559
 20
-4.9783
 30
5.7255
 70
192
 0
VERTEX
 8
HOUSE
 10
0.8044
 20
-4.9783
 30
5.4594
 70
192
 0
VERTEX
 8
HOUSE
 10
0.8044
 20
-4.649
 30
5.4591
 70
192
 0
VERTEX
 8
HOUSE
 10
0.5559
 20
-4.649
 30
5.7252
 70
192
 0
VERTEX
 8
HOUSE
 10
0.3308
 20
-4.649
 30
5.4778
 70
192
 0
VERTEX
 8
HOUSE
 10
2.2963
 20
-4.6495
 30
3.3607
 70
192
 0
VERTEX
 8
HOUSE
 10
-5.307
 20
0.0446
 30
5.7209
 70
192
 0
VERTEX
 8
HOUSE
 10
-5.307
 20
0.7129
 30
4.5974
 70
192
 0
VERTEX
 8
HOUSE
 10
6.6943
 20
2.5291
 30
2.8433
 70
192
 0
VERTEX
 8
HOUSE
 10
6.6933
 20
2.0664
 30
3.2907
 70
192
 0
VERTEX
 8
HOUSE
 10
6.6933
 20
1.6304
 30
3.7116
 70
192
 0
VERTEX
 8
HOUSE
 10
6.6933
 20
1.1776
 30
4.1488
 70
192
 0
VERTEX
 8
HOUSE
 10
6.6933
 20
0.7243
 30
4.5864
 70
192
 0
VERTEX
 8
HOUSE
 10
6.6933
 20
-0.6256
 30
4.6008
 70
192
 0
VERTEX
 8
HOUSE
 10
6.6933
 20
-1.0812
 30
4.161
 70
192
 0
VERTEX
 8
HOUSE
 10
6.6933
 20
-1.5372
 30
3.7207
 70
192
 0
VERTEX
 8
HOUSE
 10
6.6933
 20
-1.9953
 30
3.2799
 70
192
 0
VERTEX
 8
HOUSE
 10
6.6933
 20
-0.184
 30
5.0255
 70
192
 0
VERTEX
 8
HOUSE
 10
6.6933
 20
0.0436
 30
5.2436
 70
192
 0
VERTEX
 8
HOUSE
 10
6.6933
 20
0.2704
 30
5.0247
 70
192
 0
VERTEX
 8
HOUSE
 10
2.2963
 20
-4.9788
 30
3.3641
 70
192
 0
VERTEX
 8
HOUSE
 10
1.7857
 20
-4.9788
 30
3.9181
 70
192
 0
VERTEX
 8
HOUSE
 10
1.2874
 20
-4.9788
 30
4.4587
 70
192
 0
VERTEX
 8
HOUSE
 10
0.3278
 20
-4.9788
 30
5.0045
 70
192
 0
VERTEX
 8
HOUSE
 10
-0.1848
 20
-4.9788
 30
4.4489
 70
192
 0
VERTEX
 8
HOUSE
 10
-0.6721
 20
-4.9788
 30
3.9206
 70
192
 0
VERTEX
 8
HOUSE
 10
-1.1728
 20
-4.9788
 30
3.3778
 70
192
 0
VERTEX
 8
HOUSE
 10
-5.6297
 20
-1.9791
 30
3.2906
 70
192
 0
VERTEX
 8
HOUSE
 10
-5.6297
 20
-1.5431
 30
3.7116
 70
192
 0
VERTEX
 8
HOUSE
 10
-5.6297
 20
-1.0904
 30
4.1488
 70
192
 0
VERTEX
 8
HOUSE
 10
-5.6297
 20
-0.637
 30
4.5864
 70
192
 0
VERTEX
 8
HOUSE
 10
-5.6297
 20
0.2713
 30
5.0238
 70
192
 0
VERTEX
 8
HOUSE
 10
-5.6297
 20
0.7129
 30
4.5974
 70
192
 0
VERTEX
 8
HOUSE
 10
-5.6297
 20
1.1684
 30
4.1576
 70
192
 0
VERTEX
 8
HOUSE
 10
-5.6297
 20
1.6245
 30
3.7173
 70
192
 0
VERTEX
 8
HOUSE
 10
-5.6297
 20
2.0811
 30
3.2764
 70
192
 0
VERTEX
 8
HOUSE
 10
-5.6297
 20
0.0436
 30
5.2436
 70
192
 0
VERTEX
 8
HOUSE
 10
-5.6297
 20
-0.1832
 30
5.0247
 70
192
 0
VERTEX
 8
HOUSE
 10
0.5561
 20
-4.9788
 30
5.2519
 70
192
 0
VERTEX
 8
HOUSE
 10
0.8014
 20
-4.9788
 30
4.9951
 70
192
 0
VERTEX
 8
HOUSE
 10
-1.6629
 20
-4.9788
 30
2.8466
 70
192
 0
VERTEX
 8
HOUSE
 10
2.7735
 20
-4.9288
 30
2.8466
 70
192
 0
VERTEX
 8
HOUSE
 10
6.3706
 20
2.5298
 30
2.8432
 70
192
 0
VERTEX
 8
HOUSE
 10
6.6943
 20
-2.4433
 30
2.8467
 70
192
 0
VERTEX
 8
HOUSE
 10
6.3706
 20
-2.4426
 30
2.8432
 70
192
 0
VERTEX
 8
HOUSE
 10
-5.6297
 20
2.5298
 30
2.8432
 70
192
 0
VERTEX
 8
HOUSE
 10
2.7735
 20
-4.6495
 30
2.8432
 70
192
 0
VERTEX
 8
HOUSE
 10
-1.6632
 20
-4.6498
 30
2.8409
 70
192
 0
VERTEX
 8
HOUSE
 10
-5.3069
 20
2.5294
 30
2.8461
 70
192
 0
VERTEX
 8
HOUSE
 10
-5.5795
 20
-2.4425
 30
2.8452
 70
192
 0
VERTEX
 8
HOUSE
 10
-5.3068
 20
-2.4425
 30
2.8452
 70
192
 0
VERTEX
 8
HOUSE
 10
6.6443
 20
2.5291
 30
2.7881
 70
192
 0
VERTEX
 8
HOUSE
 10
6.6943
 20
2.5291
 30
2.7882
 70
192
 0
VERTEX
 8
HOUSE
 10
6.6433
 20
1.6304
 30
3.6565
 70
192
 0
VERTEX
 8
HOUSE
 10
6.6933
 20
2.0664
 30
3.2356
 70
192
 0
VERTEX
 8
HOUSE
 10
6.6933
 20
1.6304
 30
3.6565
 70
192
 0
VERTEX
 8
HOUSE
 10
6.6933
 20
1.1776
 30
4.0937
 70
192
 0
VERTEX
 8
HOUSE
 10
6.6933
 20
0.7243
 30
4.5314
 70
192
 0
VERTEX
 8
HOUSE
 10
6.6433
 20
0.2704
 30
4.9696
 70
192
 0
VERTEX
 8
HOUSE
 10
6.6933
 20
0.2704
 30
4.9696
 70
192
 0
VERTEX
 8
HOUSE
 10
6.6433
 20
-0.6256
 30
4.5458
 70
192
 0
VERTEX
 8
HOUSE
 10
6.6433
 20
-0.184
 30
4.9722
 70
192
 0
VERTEX
 8
HOUSE
 10
6.6933
 20
-0.6256
 30
4.5458
 70
192
 0
VERTEX
 8
HOUSE
 10
6.6933
 20
-1.0812
 30
4.106
 70
192
 0
VERTEX
 8
HOUSE
 10
6.6933
 20
-1.5372
 30
3.6656
 70
192
 0
VERTEX
 8
HOUSE
 10
6.6433
 20
-1.9953
 30
3.2247
 70
192
 0
VERTEX
 8
HOUSE
 10
6.6933
 20
-1.9953
 30
3.2248
 70
192
 0
VERTEX
 8
HOUSE
 10
6.6943
 20
-2.4433
 30
2.7916
 70
192
 0
VERTEX
 8
HOUSE
 10
6.6443
 20
-2.4433
 30
2.7915
 70
192
 0
VERTEX
 8
HOUSE
 10
6.6433
 20
0.0436
 30
5.1886
 70
192
 0
VERTEX
 8
HOUSE
 10
6.6933
 20
0.0436
 30
5.1886
 70
192
 0
VERTEX
 8
HOUSE
 10
6.6933
 20
-0.184
 30
4.9705
 70
192
 0
VERTEX
 8
HOUSE
 10
2.7735
 20
-4.9288
 30
2.7915
 70
192
 0
VERTEX
 8
HOUSE
 10
2.7735
 20
-4.9788
 30
2.7915
 70
192
 0
VERTEX
 8
HOUSE
 10
2.2963
 20
-4.9788
 30
3.3091
 70
192
 0
VERTEX
 8
HOUSE
 10
2.2963
 20
-4.9288
 30
3.3091
 70
192
 0
VERTEX
 8
HOUSE
 10
1.7857
 20
-4.9288
 30
3.8631
 70
192
 0
VERTEX
 8
HOUSE
 10
1.7857
 20
-4.9788
 30
3.8631
 70
192
 0
VERTEX
 8
HOUSE
 10
1.2874
 20
-4.9788
 30
4.4036
 70
192
 0
VERTEX
 8
HOUSE
 10
0.8014
 20
-4.9788
 30
4.94
 70
192
 0
VERTEX
 8
HOUSE
 10
-0.1847
 20
-4.9288
 30
4.3938
 70
192
 0
VERTEX
 8
HOUSE
 10
0.3278
 20
-4.9288
 30
4.9494
 70
192
 0
VERTEX
 8
HOUSE
 10
0.3278
 20
-4.9788
 30
4.9494
 70
192
 0
VERTEX
 8
HOUSE
 10
-0.1848
 20
-4.9788
 30
4.3938
 70
192
 0
VERTEX
 8
HOUSE
 10
-0.6721
 20
-4.9288
 30
3.8655
 70
192
 0
VERTEX
 8
HOUSE
 10
-0.6721
 20
-4.9788
 30
3.8655
 70
192
 0
VERTEX
 8
HOUSE
 10
-1.1728
 20
-4.9288
 30
3.3228
 70
192
 0
VERTEX
 8
HOUSE
 10
-1.1728
 20
-4.9788
 30
3.3228
 70
192
 0
VERTEX
 8
HOUSE
 10
-1.6629
 20
-4.9288
 30
2.7915
 70
192
 0
VERTEX
 8
HOUSE
 10
-1.6629
 20
-4.9788
 30
2.7915
 70
192
 0
VERTEX
 8
HOUSE
 10
-5.5797
 20
-2.4426
 30
2.7881
 70
192
 0
VERTEX
 8
HOUSE
 10
-5.6297
 20
-2.4426
 30
2.7881
 70
192
 0
VERTEX
 8
HOUSE
 10
-5.6301
 20
-1.981
 30
3.2356
 70
192
 0
VERTEX
 8
HOUSE
 10
-5.6297
 20
-1.5431
 30
3.6566
 70
192
 0
VERTEX
 8
HOUSE
 10
-5.6297
 20
-1.0904
 30
4.0937
 70
192
 0
VERTEX
 8
HOUSE
 10
-5.6297
 20
-0.637
 30
4.5314
 70
192
 0
VERTEX
 8
HOUSE
 10
-5.5797
 20
0.2713
 30
4.9688
 70
192
 0
VERTEX
 8
HOUSE
 10
-5.6297
 20
0.7129
 30
4.5424
 70
192
 0
VERTEX
 8
HOUSE
 10
-5.6297
 20
1.1684
 30
4.1026
 70
192
 0
VERTEX
 8
HOUSE
 10
-5.5797
 20
2.0811
 30
3.2213
 70
192
 0
VERTEX
 8
HOUSE
 10
-5.6297
 20
1.6245
 30
3.6622
 70
192
 0
VERTEX
 8
HOUSE
 10
-5.6297
 20
2.0811
 30
3.2213
 70
192
 0
VERTEX
 8
HOUSE
 10
-5.6297
 20
2.5298
 30
2.7881
 70
192
 0
VERTEX
 8
HOUSE
 10
-5.5797
 20
2.5298
 30
2.7881
 70
192
 0
VERTEX
 8
HOUSE
 10
-5.5797
 20
0.0436
 30
5.1886
 70
192
 0
VERTEX
 8
HOUSE
 10
-5.6297
 20
0.0436
 30
5.1886
 70
192
 0
VERTEX
 8
HOUSE
 10
-5.6297
 20
0.2713
 30
4.9688
 70
192
 0
VERTEX
 8
HOUSE
 10
-5.6297
 20
-0.1832
 30
4.9696
 70
192
 0
VERTEX
 8
HOUSE
 10
0.5561
 20
-4.9288
 30
5.1968
 70
192
 0
VERTEX
 8
HOUSE
 10
0.5561
 20
-4.9788
 30
5.1969
 70
192
 0
VERTEX
 8
HOUSE
 10
6.6433
 20
2.0664
 30
3.2356
 70
192
 0
VERTEX
 8
HOUSE
 10
6.6433
 20
1.1776
 30
4.0937
 70
192
 0
VERTEX
 8
HOUSE
 10
6.6433
 20
0.7243
 30
4.5314
 70
192
 0
VERTEX
 8
HOUSE
 10
6.6433
 20
-1.0812
 30
4.106
 70
192
 0
VERTEX
 8
HOUSE
 10
6.6433
 20
-1.5372
 30
3.6656
 70
192
 0
VERTEX
 8
HOUSE
 10
1.2873
 20
-4.9288
 30
4.4036
 70
192
 0
VERTEX
 8
HOUSE
 10
0.8014
 20
-4.9288
 30
4.94
 70
192
 0
VERTEX
 8
HOUSE
 10
-5.5797
 20
-1.9791
 30
3.2356
 70
192
 0
VERTEX
 8
HOUSE
 10
-5.5797
 20
-1.5431
 30
3.6566
 70
192
 0
VERTEX
 8
HOUSE
 10
-5.5797
 20
-1.0904
 30
4.0937
 70
192
 0
VERTEX
 8
HOUSE
 10
-5.5797
 20
-0.637
 30
4.5314
 70
192
 0
VERTEX
 8
HOUSE
 10
-5.5797
 20
-0.1832
 30
4.9696
 70
192
 0
VERTEX
 8
HOUSE
 10
-5.5797
 20
0.7129
 30
4.5424
 70
192
 0
VERTEX
 8
HOUSE
 10
-5.5797
 20
1.1684
 30
4.1026
 70
192
 0
VERTEX
 8
HOUSE
 10
-5.5797
 20
1.6245
 30
3.6622
 70
192
 0
VERTEX
 8
HOUSE
 10
-5.5803
 20
2.5294
 30
2.8461
 70
192
 0
VERTEX
 8
HOUSE
 10
-5.6297
 20
-2.4426
 30
2.8432
 70
192
 0
VERTEX
 8
HOUSE
 10
-1.6632
 20
-4.9289
 30
2.8437
 70
192
 0
VERTEX
 8
HOUSE
 10
2.7735
 20
-4.9788
 30
2.8466
 70
192
 0
VERTEX
 8
HOUSE
 10
6.6424
 20
-2.4432
 30
2.8461
 70
192
 0
VERTEX
 8
HOUSE
 10
6.6434
 20
2.5292
 30
2.8433
 70
192
 0
VERTEX
 8
HOUSE
 10
-1.6629
 20
-4.933
 30
2.8432
 70
192
 0
VERTEX
 8
HOUSE
 10
-1.6004
 20
-4.9329
 30
2.7755
 70
192
 0
VERTEX
 8
HOUSE
 10
1.4234
 20
-4.7775
 30
0.8848
 70
192
 0
VERTEX
 8
HOUSE
 10
0.9234
 20
-4.7775
 30
0.8848
 70
192
 0
VERTEX
 8
HOUSE
 10
0.9234
 20
-4.7775
 30
2.1848
 70
192
 0
VERTEX
 8
HOUSE
 10
1.4234
 20
-4.7775
 30
2.1848
 70
192
 0
VERTEX
 8
HOUSE
 10
0.3523
 20
-4.7775
 30
0.8848
 70
192
 0
VERTEX
 8
HOUSE
 10
-0.2376
 20
-4.7775
 30
2.1848
 70
192
 0
VERTEX
 8
HOUSE
 10
0.2624
 20
-4.7775
 30
2.1848
 70
192
 0
VERTEX
 8
HOUSE
 10
0.8523
 20
-4.7877
 30
2.2744
 70
192
 0
VERTEX
 8
HOUSE
 10
0.8523
 20
-4.7877
 30
2.7744
 70
192
 0
VERTEX
 8
HOUSE
 10
6.6448
 20
2.4263
 30
2.7755
 70
192
 0
VERTEX
 8
HOUSE
 10
6.6451
 20
0.2601
 30
2.7744
 70
192
 0
VERTEX
 8
HOUSE
 10
6.5131
 20
-0.8557
 30
0.8848
 70
192
 0
VERTEX
 8
HOUSE
 10
6.5131
 20
-0.3348
 30
2.1848
 70
192
 0
VERTEX
 8
HOUSE
 10
6.5131
 20
0.2601
 30
0.8848
 70
192
 0
VERTEX
 8
HOUSE
 10
6.5131
 20
-0.2607
 30
2.1848
 70
192
 0
VERTEX
 8
HOUSE
 10
6.5131
 20
0.8746
 30
2.1848
 70
192
 0
VERTEX
 8
HOUSE
 10
6.5131
 20
0.3537
 30
2.1848
 70
192
 0
VERTEX
 8
HOUSE
 10
6.5131
 20
0.2601
 30
2.7744
 70
192
 0
VERTEX
 8
HOUSE
 10
6.6456
 20
-0.2607
 30
2.2744
 70
192
 0
VERTEX
 8
HOUSE
 10
6.6447
 20
2.5291
 30
2.8432
 70
192
 0
VERTEX
 8
HOUSE
 10
-5.579
 20
2.5298
 30
2.8432
 70
192
 0
VERTEX
 8
HOUSE
 10
-1.6629
 20
-3.9768
 30
2.8432
 70
192
 0
VERTEX
 8
HOUSE
 10
-2.8279
 20
-3.7825
 30
4.2302
 70
192
 0
VERTEX
 8
HOUSE
 10
-3.695
 20
-2.9435
 30
2.8432
 70
192
 0
VERTEX
 8
HOUSE
 10
2.7735
 20
-4.9262
 30
2.8432
 70
192
 0
VERTEX
 8
HOUSE
 10
-5.5756
 20
-2.4426
 30
2.8432
 70
192
 0
VERTEX
 8
HOUSE
 10
-3.2483
 20
-2.4426
 30
2.8432
 70
192
 0
VERTEX
 8
HOUSE
 10
2.8333
 20
-2.4426
 30
2.7755
 70
192
 0
VERTEX
 8
HOUSE
 10
-5.579
 20
2.5298
 30
2.7755
 70
192
 0
VERTEX
 8
HOUSE
 10
-3.2479
 20
-2.4426
 30
2.7755
 70
192
 0
VERTEX
 8
HOUSE
 10
-3.695
 20
-2.9435
 30
2.7755
 70
192
 0
VERTEX
 8
HOUSE
 10
-1.6625
 20
-3.9768
 30
2.7755
 70
192
 0
VERTEX
 8
HOUSE
 10
-1.6625
 20
-4.933
 30
2.7755
 70
192
 0
VERTEX
 8
HOUSE
 10
-2.1095
 20
-4.4777
 30
2.7755
 70
192
 0
VERTEX
 8
HOUSE
 10
-3.6436
 20
-2.9926
 30
2.7763
 70
192
 0
VERTEX
 8
HOUSE
 10
-3.6462
 20
-2.9907
 30
2.8432
 70
192
 0
VERTEX
 8
HOUSE
 10
-2.1535
 20
-4.4351
 30
2.8421
 70
192
 0
VERTEX
 8
HOUSE
 10
-2.8277
 20
-3.7827
 30
4.1651
 70
192
 0
VERTEX
 8
HOUSE
 10
-5.4471
 20
-0.8557
 30
0.8848
 70
192
 0
VERTEX
 8
HOUSE
 10
-5.4471
 20
-0.3348
 30
0.8848
 70
192
 0
VERTEX
 8
HOUSE
 10
-5.4471
 20
-0.8557
 30
2.1848
 70
192
 0
VERTEX
 8
HOUSE
 10
-5.4471
 20
-0.3348
 30
2.1848
 70
192
 0
VERTEX
 8
HOUSE
 10
-5.4471
 20
-0.2607
 30
0.8848
 70
192
 0
VERTEX
 8
HOUSE
 10
-5.4471
 20
0.2601
 30
0.8848
 70
192
 0
VERTEX
 8
HOUSE
 10
-5.4471
 20
0.2601
 30
2.1848
 70
192
 0
VERTEX
 8
HOUSE
 10
-5.4471
 20
0.3537
 30
0.8848
 70
192
 0
VERTEX
 8
HOUSE
 10
-5.4471
 20
0.8746
 30
0.8848
 70
192
 0
VERTEX
 8
HOUSE
 10
-5.4382
 20
-0.2607
 30
2.2744
 70
192
 0
VERTEX
 8
HOUSE
 10
-5.4382
 20
0.2601
 30
2.2744
 70
192
 0
VERTEX
 8
HOUSE
 10
-5.4382
 20
0.2601
 30
2.7744
 70
192
 0
VERTEX
 8
HOUSE
 10
-3.0519
 20
-3.1563
 30
-0.0039
 70
192
 0
VERTEX
 8
HOUSE
 10
-2.2404
 20
-3.8787
 30
-0.0039
 70
192
 0
VERTEX
 8
HOUSE
 10
-2.2448
 20
-3.8748
 30
2.0994
 70
192
 0
VERTEX
 8
HOUSE
 10
-2.3303
 20
-3.7987
 30
2.2865
 70
192
 0
VERTEX
 8
HOUSE
 10
-2.4713
 20
-3.6732
 30
2.4152
 70
192
 0
VERTEX
 8
HOUSE
 10
-2.6433
 20
-3.5201
 30
2.4633
 70
192
 0
VERTEX
 8
HOUSE
 10
-2.8165
 20
-3.3659
 30
2.4225
 70
192
 0
VERTEX
 8
HOUSE
 10
-2.9611
 20
-3.2372
 30
2.2998
 70
192
 0
VERTEX
 8
HOUSE
 10
-3.052
 20
-3.1562
 30
2.1164
 70
192
 0
VERTEX
 8
HOUSE
 10
0.3523
 20
-4.9299
 30
2.7744
 70
192
 0
VERTEX
 8
HOUSE
 10
-1.606
 20
-4.9304
 30
0
 70
192
 0
VERTEX
 8
HOUSE
 10
-0.2376
 20
-4.9291
 30
0.8848
 70
192
 0
VERTEX
 8
HOUSE
 10
0.2624
 20
-4.9283
 30
0.8848
 70
192
 0
VERTEX
 8
HOUSE
 10
1.4234
 20
-4.9265
 30
0.8848
 70
192
 0
VERTEX
 8
HOUSE
 10
0.9234
 20
-4.9273
 30
0.8848
 70
192
 0
VERTEX
 8
HOUSE
 10
1.4234
 20
-4.9277
 30
2.1848
 70
192
 0
VERTEX
 8
HOUSE
 10
0.9234
 20
-4.9285
 30
2.1848
 70
192
 0
VERTEX
 8
HOUSE
 10
0.8523
 20
-4.9274
 30
0.8848
 70
192
 0
VERTEX
 8
HOUSE
 10
0.8523
 20
-4.9286
 30
2.1848
 70
192
 0
VERTEX
 8
HOUSE
 10
2.6962
 20
-4.9238
 30
-0.0001
 70
192
 0
VERTEX
 8
HOUSE
 10
0.3523
 20
-4.9293
 30
2.1848
 70
192
 0
VERTEX
 8
HOUSE
 10
0.3523
 20
-4.9282
 30
0.8848
 70
192
 0
VERTEX
 8
HOUSE
 10
-0.2376
 20
-4.9303
 30
2.1848
 70
192
 0
VERTEX
 8
HOUSE
 10
0.2624
 20
-4.9295
 30
2.1848
 70
192
 0
VERTEX
 8
HOUSE
 10
0.3523
 20
-4.9294
 30
2.2744
 70
192
 0
VERTEX
 8
HOUSE
 10
0.8523
 20
-4.9287
 30
2.2744
 70
192
 0
VERTEX
 8
HOUSE
 10
0.8523
 20
-4.9291
 30
2.7744
 70
192
 0
VERTEX
 8
HOUSE
 10
6.6468
 20
0.3537
 30
0.8848
 70
192
 0
VERTEX
 8
HOUSE
 10
6.6467
 20
0.8746
 30
0.8848
 70
192
 0
VERTEX
 8
HOUSE
 10
6.647
 20
-0.8557
 30
0.8848
 70
192
 0
VERTEX
 8
HOUSE
 10
6.6469
 20
-0.3348
 30
0.8848
 70
192
 0
VERTEX
 8
HOUSE
 10
6.6458
 20
-0.8557
 30
2.1848
 70
192
 0
VERTEX
 8
HOUSE
 10
6.6457
 20
-0.3348
 30
2.1848
 70
192
 0
VERTEX
 8
HOUSE
 10
6.6469
 20
-0.2607
 30
0.8848
 70
192
 0
VERTEX
 8
HOUSE
 10
6.6457
 20
-0.2607
 30
2.1848
 70
192
 0
VERTEX
 8
HOUSE
 10
6.6456
 20
0.2601
 30
2.1848
 70
192
 0
VERTEX
 8
HOUSE
 10
6.6468
 20
0.2601
 30
0.8848
 70
192
 0
VERTEX
 8
HOUSE
 10
6.6456
 20
0.8746
 30
2.1848
 70
192
 0
VERTEX
 8
HOUSE
 10
6.6456
 20
0.3537
 30
2.1848
 70
192
 0
VERTEX
 8
HOUSE
 10
6.6473
 20
2.4248
 30
-0.0005
 70
192
 0
VERTEX
 8
HOUSE
 10
6.648
 20
-2.3603
 30
-0.0005
 70
192
 0
VERTEX
 8
HOUSE
 10
2.747
 20
-2.3647
 30
0.0008
 70
192
 0
VERTEX
 8
HOUSE
 10
-3.147
 20
-2.4129
 30
-0.0004
 70
192
 0
VERTEX
 8
HOUSE
 10
-5.581
 20
2.4248
 30
-0.0005
 70
192
 0
VERTEX
 8
HOUSE
 10
-1.6053
 20
-3.8408
 30
0.0039
 70
192
 0
VERTEX
 8
HOUSE
 10
-3.5871
 20
-2.9645
 30
-0.0005
 70
192
 0
VERTEX
 8
HOUSE
 10
-2.1076
 20
-4.4009
 30
0.0032
 70
192
 0
VERTEX
 8
HOUSE
 10
-5.5827
 20
-2.3673
 30
-0.0005
 70
192
 0
VERTEX
 8
HOUSE
 10
-5.5816
 20
-0.8557
 30
0.8848
 70
192
 0
VERTEX
 8
HOUSE
 10
-5.5814
 20
-0.3348
 30
0.8848
 70
192
 0
VERTEX
 8
HOUSE
 10
-5.5805
 20
-0.3348
 30
2.1848
 70
192
 0
VERTEX
 8
HOUSE
 10
-5.5807
 20
-0.8557
 30
2.1848
 70
192
 0
VERTEX
 8
HOUSE
 10
-5.5813
 20
-0.2607
 30
0.8848
 70
192
 0
VERTEX
 8
HOUSE
 10
-5.5811
 20
0.2601
 30
0.8848
 70
192
 0
VERTEX
 8
HOUSE
 10
-5.5804
 20
-0.2607
 30
2.1848
 70
192
 0
VERTEX
 8
HOUSE
 10
-5.5803
 20
0.2601
 30
2.1848
 70
192
 0
VERTEX
 8
HOUSE
 10
-5.5809
 20
0.8746
 30
0.8848
 70
192
 0
VERTEX
 8
HOUSE
 10
-5.5802
 20
0.3537
 30
2.1848
 70
192
 0
VERTEX
 8
HOUSE
 10
-5.5811
 20
0.3537
 30
0.8848
 70
192
 0
VERTEX
 8
HOUSE
 10
-5.5804
 20
-0.2607
 30
2.2744
 70
192
 0
VERTEX
 8
HOUSE
 10
-5.5802
 20
0.2601
 30
2.2744
 70
192
 0
VERTEX
 8
HOUSE
 10
-5.5798
 20
0.2601
 30
2.7744
 70
192
 0
VERTEX
 8
HOUSE
 10
-5.58
 20
-0.2607
 30
2.7744
 70
192
 0
VERTEX
 8
HOUSE
 10
-5.58
 20
0.8746
 30
2.1848
 70
192
 0
VERTEX
 8
HOUSE
 10
-2.4375
 20
-4.0778
 30
2.0994
 70
192
 0
VERTEX
 8
HOUSE
 10
-2.5196
 20
-3.9979
 30
2.2865
 70
192
 0
VERTEX
 8
HOUSE
 10
-2.6548
 20
-3.8665
 30
2.4152
 70
192
 0
VERTEX
 8
HOUSE
 10
-2.8198
 20
-3.7062
 30
2.4633
 70
192
 0
VERTEX
 8
HOUSE
 10
-2.9862
 20
-3.5447
 30
2.4225
 70
192
 0
VERTEX
 8
HOUSE
 10
-3.125
 20
-3.4101
 30
2.2998
 70
192
 0
VERTEX
 8
HOUSE
 10
-3.2124
 20
-3.3255
 30
2.1164
 70
192
 0
VERTEX
 8
HOUSE
 10
0.8523
 20
-4.7775
 30
0.8848
 70
192
 0
VERTEX
 8
HOUSE
 10
0.3523
 20
-4.7775
 30
2.1848
 70
192
 0
VERTEX
 8
HOUSE
 10
0.8523
 20
-4.7775
 30
2.1848
 70
192
 0
VERTEX
 8
HOUSE
 10
0.2624
 20
-4.7775
 30
0.8848
 70
192
 0
VERTEX
 8
HOUSE
 10
-0.2376
 20
-4.7775
 30
0.8848
 70
192
 0
VERTEX
 8
HOUSE
 10
0.3523
 20
-4.7877
 30
2.2744
 70
192
 0
VERTEX
 8
HOUSE
 10
0.3523
 20
-4.7877
 30
2.7744
 70
192
 0
VERTEX
 8
HOUSE
 10
6.5131
 20
-0.3348
 30
0.8848
 70
192
 0
VERTEX
 8
HOUSE
 10
6.5131
 20
-0.8557
 30
2.1848
 70
192
 0
VERTEX
 8
HOUSE
 10
6.5131
 20
-0.2607
 30
0.8848
 70
192
 0
VERTEX
 8
HOUSE
 10
6.5131
 20
0.2601
 30
2.1848
 70
192
 0
VERTEX
 8
HOUSE
 10
6.5131
 20
0.3537
 30
0.8848
 70
192
 0
VERTEX
 8
HOUSE
 10
6.5131
 20
0.8746
 30
0.8848
 70
192
 0
VERTEX
 8
HOUSE
 10
6.6456
 20
0.2601
 30
2.2744
 70
192
 0
VERTEX
 8
HOUSE
 10
6.5131
 20
-0.2607
 30
2.2744
 70
192
 0
VERTEX
 8
HOUSE
 10
6.5131
 20
0.2601
 30
2.2744
 70
192
 0
VERTEX
 8
HOUSE
 10
6.5131
 20
-0.2607
 30
2.7744
 70
192
 0
VERTEX
 8
HOUSE
 10
6.6452
 20
-0.2607
 30
2.7744
 70
192
 0
VERTEX
 8
HOUSE
 10
-5.579
 20
2.4279
 30
2.7755
 70
192
 0
VERTEX
 8
HOUSE
 10
-3.0922
 20
-2.3705
 30
2.7762
 70
192
 0
VERTEX
 8
HOUSE
 10
6.6455
 20
-2.3546
 30
2.7755
 70
192
 0
VERTEX
 8
HOUSE
 10
-1.6089
 20
-3.8007
 30
2.7758
 70
192
 0
VERTEX
 8
HOUSE
 10
-3.6044
 20
-2.9439
 30
2.8432
 70
192
 0
VERTEX
 8
HOUSE
 10
-2.7864
 20
-3.7364
 30
4.1651
 70
192
 0
VERTEX
 8
HOUSE
 10
-5.4471
 20
-0.2607
 30
2.1848
 70
192
 0
VERTEX
 8
HOUSE
 10
-5.4471
 20
0.3537
 30
2.1848
 70
192
 0
VERTEX
 8
HOUSE
 10
-5.4471
 20
0.8746
 30
2.1848
 70
192
 0
VERTEX
 8
HOUSE
 10
-5.4382
 20
-0.2607
 30
2.7744
 70
192
 0
VERTEX
 8
HOUSE
 10
-2.4344
 20
-4.0836
 30
-0.0006
 70
192
 0
VERTEX
 8
HOUSE
 10
-3.2115
 20
-3.3291
 30
-0.0025
 70
192
 0
VERTEX
 8
HOUSE
 10
2.7145
 20
-4.9263
 30
2.7755
 70
192
 0
VERTEX
 8
HOUSE
 10
0.5561
 20
0.0436
 30
5.2436
 70
192
 0
VERTEX
 8
HOUSE
 10
-0.3788
 20
-1.0039
 30
4.2322
 70
192
 0
VERTEX
 8
HOUSE
 10
-3.6017
 20
-2.9467
 30
2.7761
 70
192
 0
VERTEX
 8
HOUSE
 10
-5.5808
 20
-2.3671
 30
2.7755
 70
192
 0
VERTEX
 8
HOUSE
 10
2.7616
 20
-2.3641
 30
2.7768
 70
192
 0
VERTEX
 8
HOUSE
 10
-2.1079
 20
-4.397
 30
2.7755
 70
192
 0
VERTEX
 8
HOUSE
 10
-2.1141
 20
-4.3908
 30
2.8421
 70
192
 0
VERTEX
 8
HOUSE
 10
2.8343
 20
-2.4426
 30
2.8432
 70
192
 0
VERTEX
 8
HOUSE
 10
6.6454
 20
-2.4433
 30
2.8432
 70
192
 0
VERTEX
 8
HOUSE
 10
6.6429
 20
0.0436
 30
5.2436
 70
192
 0
VERTEX
 8
HOUSE
 10
0.5561
 20
-4.9318
 30
5.2485
 70
192
 0
VERTEX
 8
HOUSE
 10
-5.5782
 20
0.0436
 30
5.2436
 70
192
 0
VERTEX
 8
HOUSE
 10
6.6448
 20
2.5298
 30
2.7755
 70
192
 0
VERTEX
 8
HOUSE
 10
6.6455
 20
-2.4426
 30
2.7755
 70
192
 0
VERTEX
 8
HOUSE
 10
-5.5756
 20
-2.4426
 30
2.7755
 70
192
 0
VERTEX
 8
HOUSE
 10
2.7739
 20
-4.9262
 30
2.7755
 70
192
 0
VERTEX
 8
HOUSE
 10
-2.1095
 20
-4.4777
 30
2.8432
 70
192
 0
VERTEX
 8
HOUSE
 10
-2.1472
 20
-4.4413
 30
2.7755
 70
192
 0
VERTEX
 8
HOUSE
 10
-0.7627
 20
-0.2889
 30
5.9534
 70
192
 0
VERTEX
 8
HOUSE
 10
-0.792
 20
-0.2181
 30
5.9534
 70
192
 0
VERTEX
 8
HOUSE
 10
-0.8627
 20
-0.1889
 30
5.9534
 70
192
 0
VERTEX
 8
HOUSE
 10
-0.9334
 20
-0.2181
 30
5.9534
 70
192
 0
VERTEX
 8
HOUSE
 10
-0.9627
 20
-0.2889
 30
5.9534
 70
192
 0
VERTEX
 8
HOUSE
 10
-0.9334
 20
-0.3596
 30
5.9534
 70
192
 0
VERTEX
 8
HOUSE
 10
-0.8627
 20
-0.3889
 30
5.9534
 70
192
 0
VERTEX
 8
HOUSE
 10
-0.792
 20
-0.3596
 30
5.9534
 70
192
 0
VERTEX
 8
HOUSE
 10
-0.7627
 20
-0.2889
 30
6.2034
 70
192
 0
VERTEX
 8
HOUSE
 10
-0.792
 20
-0.2181
 30
6.2034
 70
192
 0
VERTEX
 8
HOUSE
 10
-0.8627
 20
-0.1889
 30
6.2034
 70
192
 0
VERTEX
 8
HOUSE
 10
-0.9334
 20
-0.2181
 30
6.2034
 70
192
 0
VERTEX
 8
HOUSE
 10
-0.9627
 20
-0.2889
 30
6.2034
 70
192
 0
VERTEX
 8
HOUSE
 10
-0.9334
 20
-0.3596
 30
6.2034
 70
192
 0
VERTEX
 8
HOUSE
 10
-0.8627
 20
-0.3889
 30
6.2034
 70
192
 0
VERTEX
 8
HOUSE
 10
-0.792
 20
-0.3596
 30
6.2034
 70
192
 0
VERTEX
 8
HOUSE
 10
-0.6093
 20
-0.504
 30
4.6699
 70
192
 0
VERTEX
 8
HOUSE
 10
-1.1093
 20
-0.504
 30
4.6699
 70
192
 0
VERTEX
 8
HOUSE
 10
-1.1093
 20
0.5831
 30
4.6695
 70
192
 0
VERTEX
 8
HOUSE
 10
-0.6093
 20
0.5831
 30
4.6695
 70
192
 0
VERTEX
 8
HOUSE
 10
-1.0923
 20
-0.4669
 30
5.9608
 70
192
 0
VERTEX
 8
HOUSE
 10
-0.6263
 20
-0.4669
 30
5.9608
 70
192
 0
VERTEX
 8
HOUSE
 10
-1.0923
 20
0.5461
 30
5.9608
 70
192
 0
VERTEX
 8
HOUSE
 10
-0.6263
 20
0.5461
 30
5.9608
 70
192
 0
VERTEX
 8
HOUSE
 10
-1.1093
 20
-0.504
 30
5.6727
 70
192
 0
VERTEX
 8
HOUSE
 10
-1.1093
 20
0.5831
 30
5.6727
 70
192
 0
VERTEX
 8
HOUSE
 10
-0.6093
 20
-0.504
 30
5.7693
 70
192
 0
VERTEX
 8
HOUSE
 10
-0.6093
 20
0.5831
 30
5.7693
 70
192
 0
VERTEX
 8
HOUSE
 10
-1.1093
 20
0.5831
 30
5.7693
 70
192
 0
VERTEX
 8
HOUSE
 10
-1.1446
 20
-0.536
 30
5.6727
 70
192
 0
VERTEX
 8
HOUSE
 10
-0.5739
 20
-0.536
 30
5.6727
 70
192
 0
VERTEX
 8
HOUSE
 10
-0.5739
 20
0.6152
 30
5.6727
 70
192
 0
VERTEX
 8
HOUSE
 10
-1.1446
 20
0.6152
 30
5.6727
 70
192
 0
VERTEX
 8
HOUSE
 10
-0.5739
 20
-0.536
 30
5.7693
 70
192
 0
VERTEX
 8
HOUSE
 10
-1.1446
 20
-0.536
 30
5.7693
 70
192
 0
VERTEX
 8
HOUSE
 10
-1.1446
 20
0.6152
 30
5.7693
 70
192
 0
VERTEX
 8
HOUSE
 10
-0.5739
 20
0.6152
 30
5.7693
 70
192
 0
VERTEX
 8
HOUSE
 10
-0.6093
 20
0.5828
 30
5.6727
 70
192
 0
VERTEX
 8
HOUSE
 10
-0.6093
 20
-0.504
 30
5.6712
 70
192
 0
VERTEX
 8
HOUSE
 10
-1.1093
 20
-0.504
 30
5.7693
 70
192
 0
VERTEX
 8
HOUSE
 10
-0.7627
 20
0.0395
 30
5.9534
 70
192
 0
VERTEX
 8
HOUSE
 10
-0.792
 20
0.1102
 30
5.9534
 70
192
 0
VERTEX
 8
HOUSE
 10
-0.8627
 20
0.1395
 30
5.9534
 70
192
 0
VERTEX
 8
HOUSE
 10
-0.9334
 20
0.1102
 30
5.9534
 70
192
 0
VERTEX
 8
HOUSE
 10
-0.9627
 20
0.0395
 30
5.9534
 70
192
 0
VERTEX
 8
HOUSE
 10
-0.9334
 20
-0.0312
 30
5.9534
 70
192
 0
VERTEX
 8
HOUSE
 10
-0.8627
 20
-0.0605
 30
5.9534
 70
192
 0
VERTEX
 8
HOUSE
 10
-0.792
 20
-0.0312
 30
5.9534
 70
192
 0
VERTEX
 8
HOUSE
 10
-0.7627
 20
0.0395
 30
6.2034
 70
192
 0
VERTEX
 8
HOUSE
 10
-0.792
 20
0.1102
 30
6.2034
 70
192
 0
VERTEX
 8
HOUSE
 10
-0.8627
 20
0.1395
 30
6.2034
 70
192
 0
VERTEX
 8
HOUSE
 10
-0.9334
 20
0.1102
 30
6.2034
 70
192
 0
VERTEX
 8
HOUSE
 10
-0.9627
 20
0.0395
 30
6.2034
 70
192
 0
VERTEX
 8
HOUSE
 10
-0.9334
 20
-0.0312
 30
6.2034
 70
192
 0
VERTEX
 8
HOUSE
 10
-0.8627
 20
-0.0605
 30
6.2034
 70
192
 0
VERTEX
 8
HOUSE
 10
-0.792
 20
-0.0312
 30
6.2034
 70
192
 0
VERTEX
 8
HOUSE
 10
-0.7627
 20
0.3593
 30
5.9534
 70
192
 0
VERTEX
 8
HOUSE
 10
-0.792
 20
0.43
 30
5.9534
 70
192
 0
VERTEX
 8
HOUSE
 10
-0.8627
 20
0.4593
 30
5.9534
 70
192
 0
VERTEX
 8
HOUSE
 10
-0.9334
 20
0.43
 30
5.9534
 70
192
 0
VERTEX
 8
HOUSE
 10
-0.9627
 20
0.3593
 30
5.9534
 70
192
 0
VERTEX
 8
HOUSE
 10
-0.9334
 20
0.2886
 30
5.9534
 70
192
 0
VERTEX
 8
HOUSE
 10
-0.8627
 20
0.2593
 30
5.9534
 70
192
 0
VERTEX
 8
HOUSE
 10
-0.792
 20
0.2886
 30
5.9534
 70
192
 0
VERTEX
 8
HOUSE
 10
-0.7627
 20
0.3593
 30
6.2034
 70
192
 0
VERTEX
 8
HOUSE
 10
-0.792
 20
0.43
 30
6.2034
 70
192
 0
VERTEX
 8
HOUSE
 10
-0.8627
 20
0.4593
 30
6.2034
 70
192
 0
VERTEX
 8
HOUSE
 10
-0.9334
 20
0.43
 30
6.2034
 70
192
 0
VERTEX
 8
HOUSE
 10
-0.9627
 20
0.3593
 30
6.2034
 70
192
 0
VERTEX
 8
HOUSE
 10
-0.9334
 20
0.2886
 30
6.2034
 70
192
 0
VERTEX
 8
HOUSE
 10
-0.8627
 20
0.2593
 30
6.2034
 70
192
 0
VERTEX
 8
HOUSE
 10
-0.792
 20
0.2886
 30
6.2034
 70
192
 0
VERTEX
 8
HOUSE
 10
1.9304
 20
3.94
 30
0.0026
 70
192
 0
VERTEX
 8
HOUSE
 10
4.8128
 20
3.94
 30
0.0026
 70
192
 0
VERTEX
 8
HOUSE
 10
4.8127
 20
2.401
 30
-0.0005
 70
192
 0
VERTEX
 8
HOUSE
 10
1.9303
 20
2.401
 30
-0.0005
 70
192
 0
VERTEX
 8
HOUSE
 10
1.9303
 20
2.4028
 30
2.4227
 70
192
 0
VERTEX
 8
HOUSE
 10
1.9304
 20
3.9417
 30
1.7493
 70
192
 0
VERTEX
 8
HOUSE
 10
4.8128
 20
3.9414
 30
1.7493
 70
192
 0
VERTEX
 8
HOUSE
 10
4.8127
 20
2.4024
 30
2.4227
 70
192
 0
VERTEX
 8
HOUSE
 10
1.9103
 20
2.4028
 30
2.4598
 70
192
 0
VERTEX
 8
HOUSE
 10
1.9147
 20
3.9542
 30
1.7706
 70
192
 0
VERTEX
 8
HOUSE
 10
4.8327
 20
2.4025
 30
2.4598
 70
192
 0
VERTEX
 8
HOUSE
 10
4.835
 20
2.4024
 30
2.4188
 70
192
 0
VERTEX
 8
HOUSE
 10
4.8269
 20
3.9575
 30
1.741
 70
192
 0
VERTEX
 8
HOUSE
 10
1.9117
 20
3.9578
 30
1.741
 70
192
 0
VERTEX
 8
HOUSE
 10
1.9035
 20
2.4028
 30
2.4188
 70
192
 0
VERTEX
 8
HOUSE
 10
4.8285
 20
3.9538
 30
1.7706
 70
192
 0
VERTEX
 8
HOUSE
 10
-3.2151
 20
-3.3306
 30
0.1944
 70
192
 0
VERTEX
 8
HOUSE
 10
-2.4359
 20
-4.0808
 30
0.1944
 70
192
 0
VERTEX
 8
HOUSE
 10
-2.4363
 20
-4.0806
 30
0.1045
 70
192
 0
VERTEX
 8
HOUSE
 10
-3.214
 20
-3.3319
 30
0.1045
 70
192
 0
VERTEX
 8
HOUSE
 10
-2.6175
 20
-4.2744
 30
0.195
 70
192
 0
VERTEX
 8
HOUSE
 10
-2.618
 20
-4.2741
 30
0.1051
 70
192
 0
VERTEX
 8
HOUSE
 10
-2.3877
 20
-4.1278
 30
0.002
 70
192
 0
VERTEX
 8
HOUSE
 10
-3.3956
 20
-3.5254
 30
0.1051
 70
192
 0
VERTEX
 8
HOUSE
 10
-3.3967
 20
-3.5242
 30
0.195
 70
192
 0
VERTEX
 8
HOUSE
 10
-2.7073
 20
-4.4633
 30
0.0011
 70
192
 0
VERTEX
 8
HOUSE
 10
-3.5815
 20
-3.6211
 30
-0.0013
 70
192
 0
VERTEX
 8
HOUSE
 10
-3.5826
 20
-3.6199
 30
0.1027
 70
192
 0
VERTEX
 8
HOUSE
 10
-2.7069
 20
-4.4635
 30
0.1033
 70
192
 0
VERTEX
 8
HOUSE
 10
-2.3873
 20
-4.1281
 30
0.1042
 70
192
 0
VERTEX
 8
HOUSE
 10
-3.262
 20
-3.2856
 30
-0.0004
 70
192
 0
VERTEX
 8
HOUSE
 10
-3.263
 20
-3.2844
 30
0.1035
 70
192
 0
VERTEX
 8
HOUSE
 10
-3.0525
 20
-3.1557
 30
0.1944
 70
192
 0
VERTEX
 8
HOUSE
 10
-2.241
 20
-3.8781
 30
0.1944
 70
192
 0
VERTEX
 8
HOUSE
 10
-4.5801
 20
-2.9961
 30
0.8344
 70
192
 0
VERTEX
 8
HOUSE
 10
-4.4235
 20
-2.9454
 30
0.8344
 70
192
 0
VERTEX
 8
HOUSE
 10
-4.3266
 20
-2.8122
 30
0.8344
 70
192
 0
VERTEX
 8
HOUSE
 10
-4.3265
 20
-2.6476
 30
0.8344
 70
192
 0
VERTEX
 8
HOUSE
 10
-4.4232
 20
-2.5143
 30
0.8344
 70
192
 0
VERTEX
 8
HOUSE
 10
-4.5797
 20
-2.4634
 30
0.8344
 70
192
 0
VERTEX
 8
HOUSE
 10
-4.7363
 20
-2.5141
 30
0.8344
 70
192
 0
VERTEX
 8
HOUSE
 10
-4.8332
 20
-2.6473
 30
0.8344
 70
192
 0
VERTEX
 8
HOUSE
 10
-4.8333
 20
-2.8119
 30
0.8344
 70
192
 0
VERTEX
 8
HOUSE
 10
-4.7366
 20
-2.9452
 30
0.8344
 70
192
 0
VERTEX
 8
HOUSE
 10
-4.5801
 20
-3.0296
 30
1.0686
 70
192
 0
VERTEX
 8
HOUSE
 10
-4.4038
 20
-2.9725
 30
1.0686
 70
192
 0
VERTEX
 8
HOUSE
 10
-4.2947
 20
-2.8226
 30
1.0686
 70
192
 0
VERTEX
 8
HOUSE
 10
-4.2946
 20
-2.6373
 30
1.0686
 70
192
 0
VERTEX
 8
HOUSE
 10
-4.4035
 20
-2.4872
 30
1.0686
 70
192
 0
VERTEX
 8
HOUSE
 10
-4.5797
 20
-2.4299
 30
1.0686
 70
192
 0
VERTEX
 8
HOUSE
 10
-4.756
 20
-2.487
 30
1.0686
 70
192
 0
VERTEX
 8
HOUSE
 10
-4.8651
 20
-2.6369
 30
1.0686
 70
192
 0
VERTEX
 8
HOUSE
 10
-4.8652
 20
-2.8222
 30
1.0686
 70
192
 0
VERTEX
 8
HOUSE
 10
-4.7563
 20
-2.9723
 30
1.0686
 70
192
 0
VERTEX
 8
HOUSE
 10
-4.5801
 20
-3.0296
 30
1.3499
 70
192
 0
VERTEX
 8
HOUSE
 10
-4.4038
 20
-2.9725
 30
1.3499
 70
192
 0
VERTEX
 8
HOUSE
 10
-4.2947
 20
-2.8226
 30
1.3499
 70
192
 0
VERTEX
 8
HOUSE
 10
-4.2946
 20
-2.6373
 30
1.3499
 70
192
 0
VERTEX
 8
HOUSE
 10
-4.4035
 20
-2.4872
 30
1.3499
 70
192
 0
VERTEX
 8
HOUSE
 10
-4.5797
 20
-2.4299
 30
1.3499
 70
192
 0
VERTEX
 8
HOUSE
 10
-4.756
 20
-2.487
 30
1.3499
 70
192
 0
VERTEX
 8
HOUSE
 10
-4.8651
 20
-2.6369
 30
1.3499
 70
192
 0
VERTEX
 8
HOUSE
 10
-4.8652
 20
-2.8222
 30
1.3499
 70
192
 0
VERTEX
 8
HOUSE
 10
-4.7563
 20
-2.9723
 30
1.3499
 70
192
 0
VERTEX
 8
HOUSE
 10
-4.5801
 20
-2.9961
 30
1.5841
 70
192
 0
VERTEX
 8
HOUSE
 10
-4.4235
 20
-2.9454
 30
1.5841
 70
192
 0
VERTEX
 8
HOUSE
 10
-4.3266
 20
-2.8122
 30
1.5841
 70
192
 0
VERTEX
 8
HOUSE
 10
-4.3265
 20
-2.6476
 30
1.5841
 70
192
 0
VERTEX
 8
HOUSE
 10
-4.4232
 20
-2.5143
 30
1.5841
 70
192
 0
VERTEX
 8
HOUSE
 10
-4.5797
 20
-2.4634
 30
1.5841
 70
192
 0
VERTEX
 8
HOUSE
 10
-4.7363
 20
-2.5141
 30
1.5841
 70
192
 0
VERTEX
 8
HOUSE
 10
-4.8332
 20
-2.6473
 30
1.5841
 70
192
 0
VERTEX
 8
HOUSE
 10
-4.8333
 20
-2.8119
 30
1.5841
 70
192
 0
VERTEX
 8
HOUSE
 10
-4.7366
 20
-2.9452
 30
1.5841
 70
192
 0
VERTEX
 8
HOUSE
 10
-4.6743
 20
-2.7921
 30
0.0805
 70
192
 0
VERTEX
 8
HOUSE
 10
-4.6871
 20
-2.6279
 30
0.0805
 70
192
 0
VERTEX
 8
HOUSE
 10
-4.6561
 20
-2.6151
 30
0.3147
 70
192
 0
VERTEX
 8
HOUSE
 10
-4.6417
 20
-2.7999
 30
0.3147
 70
192
 0
VERTEX
 8
HOUSE
 10
-4.794
 20
-2.5027
 30
0.0805
 70
192
 0
VERTEX
 8
HOUSE
 10
-4.7764
 20
-2.4741
 30
0.3147
 70
192
 0
VERTEX
 8
HOUSE
 10
-4.954
 20
-2.4642
 30
0.0805
 70
192
 0
VERTEX
 8
HOUSE
 10
-4.9567
 20
-2.4308
 30
0.3147
 70
192
 0
VERTEX
 8
HOUSE
 10
-5.1062
 20
-2.5271
 30
0.0805
 70
192
 0
VERTEX
 8
HOUSE
 10
-5.1279
 20
-2.5016
 30
0.3147
 70
192
 0
VERTEX
 8
HOUSE
 10
-5.1923
 20
-2.6674
 30
0.0805
 70
192
 0
VERTEX
 8
HOUSE
 10
-5.2248
 20
-2.6596
 30
0.3147
 70
192
 0
VERTEX
 8
HOUSE
 10
-5.1794
 20
-2.8316
 30
0.0805
 70
192
 0
VERTEX
 8
HOUSE
 10
-5.2104
 20
-2.8444
 30
0.3147
 70
192
 0
VERTEX
 8
HOUSE
 10
-5.0725
 20
-2.9568
 30
0.0805
 70
192
 0
VERTEX
 8
HOUSE
 10
-5.0901
 20
-2.9854
 30
0.3147
 70
192
 0
VERTEX
 8
HOUSE
 10
-4.9125
 20
-2.9953
 30
0.0805
 70
192
 0
VERTEX
 8
HOUSE
 10
-4.9099
 20
-3.0287
 30
0.3147
 70
192
 0
VERTEX
 8
HOUSE
 10
-4.7603
 20
-2.9324
 30
0.0805
 70
192
 0
VERTEX
 8
HOUSE
 10
-4.7386
 20
-2.9579
 30
0.3147
 70
192
 0
VERTEX
 8
HOUSE
 10
-4.6561
 20
-2.6151
 30
0.596
 70
192
 0
VERTEX
 8
HOUSE
 10
-4.6417
 20
-2.7999
 30
0.596
 70
192
 0
VERTEX
 8
HOUSE
 10
-4.7764
 20
-2.4741
 30
0.596
 70
192
 0
VERTEX
 8
HOUSE
 10
-4.9567
 20
-2.4308
 30
0.596
 70
192
 0
VERTEX
 8
HOUSE
 10
-5.1279
 20
-2.5016
 30
0.596
 70
192
 0
VERTEX
 8
HOUSE
 10
-5.2248
 20
-2.6596
 30
0.596
 70
192
 0
VERTEX
 8
HOUSE
 10
-5.2104
 20
-2.8444
 30
0.596
 70
192
 0
VERTEX
 8
HOUSE
 10
-5.0901
 20
-2.9854
 30
0.596
 70
192
 0
VERTEX
 8
HOUSE
 10
-4.9099
 20
-3.0287
 30
0.596
 70
192
 0
VERTEX
 8
HOUSE
 10
-4.7386
 20
-2.9579
 30
0.596
 70
192
 0
VERTEX
 8
HOUSE
 10
-4.6871
 20
-2.6279
 30
0.8302
 70
192
 0
VERTEX
 8
HOUSE
 10
-4.6743
 20
-2.7921
 30
0.8302
 70
192
 0
VERTEX
 8
HOUSE
 10
-4.794
 20
-2.5027
 30
0.8302
 70
192
 0
VERTEX
 8
HOUSE
 10
-4.954
 20
-2.4642
 30
0.8302
 70
192
 0
VERTEX
 8
HOUSE
 10
-5.1062
 20
-2.5271
 30
0.8302
 70
192
 0
VERTEX
 8
HOUSE
 10
-5.1923
 20
-2.6674
 30
0.8302
 70
192
 0
VERTEX
 8
HOUSE
 10
-5.1794
 20
-2.8316
 30
0.8302
 70
192
 0
VERTEX
 8
HOUSE
 10
-5.0725
 20
-2.9568
 30
0.8302
 70
192
 0
VERTEX
 8
HOUSE
 10
-4.9125
 20
-2.9953
 30
0.8302
 70
192
 0
VERTEX
 8
HOUSE
 10
-4.7603
 20
-2.9324
 30
0.8302
 70
192
 0
VERTEX
 8
HOUSE
 10
-4.2427
 20
-2.471
 30
0.0805
 70
192
 0
VERTEX
 8
HOUSE
 10
-4.4069
 20
-2.4832
 30
0.0805
 70
192
 0
VERTEX
 8
HOUSE
 10
-4.4196
 20
-2.4522
 30
0.3147
 70
192
 0
VERTEX
 8
HOUSE
 10
-4.2347
 20
-2.4385
 30
0.3147
 70
192
 0
VERTEX
 8
HOUSE
 10
-4.5326
 20
-2.5895
 30
0.0805
 70
192
 0
VERTEX
 8
HOUSE
 10
-4.5611
 20
-2.5719
 30
0.3147
 70
192
 0
VERTEX
 8
HOUSE
 10
-4.5718
 20
-2.7494
 30
0.0805
 70
192
 0
VERTEX
 8
HOUSE
 10
-4.6052
 20
-2.7519
 30
0.3147
 70
192
 0
VERTEX
 8
HOUSE
 10
-4.5095
 20
-2.9018
 30
0.0805
 70
192
 0
VERTEX
 8
HOUSE
 10
-4.535
 20
-2.9235
 30
0.3147
 70
192
 0
VERTEX
 8
HOUSE
 10
-4.3695
 20
-2.9885
 30
0.0805
 70
192
 0
VERTEX
 8
HOUSE
 10
-4.3775
 20
-3.021
 30
0.3147
 70
192
 0
VERTEX
 8
HOUSE
 10
-4.2053
 20
-2.9763
 30
0.0805
 70
192
 0
VERTEX
 8
HOUSE
 10
-4.1926
 20
-3.0073
 30
0.3147
 70
192
 0
VERTEX
 8
HOUSE
 10
-4.0796
 20
-2.87
 30
0.0805
 70
192
 0
VERTEX
 8
HOUSE
 10
-4.0511
 20
-2.8876
 30
0.3147
 70
192
 0
VERTEX
 8
HOUSE
 10
-4.0404
 20
-2.7101
 30
0.0805
 70
192
 0
VERTEX
 8
HOUSE
 10
-4.007
 20
-2.7076
 30
0.3147
 70
192
 0
VERTEX
 8
HOUSE
 10
-4.1027
 20
-2.5577
 30
0.0805
 70
192
 0
VERTEX
 8
HOUSE
 10
-4.0772
 20
-2.536
 30
0.3147
 70
192
 0
VERTEX
 8
HOUSE
 10
-4.4196
 20
-2.4522
 30
0.596
 70
192
 0
VERTEX
 8
HOUSE
 10
-4.2347
 20
-2.4385
 30
0.596
 70
192
 0
VERTEX
 8
HOUSE
 10
-4.5611
 20
-2.5719
 30
0.596
 70
192
 0
VERTEX
 8
HOUSE
 10
-4.6052
 20
-2.7519
 30
0.596
 70
192
 0
VERTEX
 8
HOUSE
 10
-4.535
 20
-2.9235
 30
0.596
 70
192
 0
VERTEX
 8
HOUSE
 10
-4.3775
 20
-3.021
 30
0.596
 70
192
 0
VERTEX
 8
HOUSE
 10
-4.1926
 20
-3.0073
 30
0.596
 70
192
 0
VERTEX
 8
HOUSE
 10
-4.0511
 20
-2.8876
 30
0.596
 70
192
 0
VERTEX
 8
HOUSE
 10
-4.007
 20
-2.7076
 30
0.596
 70
192
 0
VERTEX
 8
HOUSE
 10
-4.0772
 20
-2.536
 30
0.596
 70
192
 0
VERTEX
 8
HOUSE
 10
-4.4069
 20
-2.4832
 30
0.8302
 70
192
 0
VERTEX
 8
HOUSE
 10
-4.2427
 20
-2.471
 30
0.8302
 70
192
 0
VERTEX
 8
HOUSE
 10
-4.5326
 20
-2.5895
 30
0.8302
 70
192
 0
VERTEX
 8
HOUSE
 10
-4.5718
 20
-2.7494
 30
0.8302
 70
192
 0
VERTEX
 8
HOUSE
 10
-4.5095
 20
-2.9018
 30
0.8302
 70
192
 0
VERTEX
 8
HOUSE
 10
-4.3695
 20
-2.9885
 30
0.8302
 70
192
 0
VERTEX
 8
HOUSE
 10
-4.2053
 20
-2.9763
 30
0.8302
 70
192
 0
VERTEX
 8
HOUSE
 10
-4.0796
 20
-2.87
 30
0.8302
 70
192
 0
VERTEX
 8
HOUSE
 10
-4.0404
 20
-2.7101
 30
0.8302
 70
192
 0
VERTEX
 8
HOUSE
 10
-4.1027
 20
-2.5577
 30
0.8302
 70
192
 0
VERTEX
 8
HOUSE
 10
0
 20
0
 30
0
 70
128
 71
3
 72
5
 73
37
 74
4
 0
VERTEX
 8
HOUSE
 10
0
 20
0
 30
0
 70
128
 71
3
 72
4
 73
36
 74
6
 0
VERTEX
 8
HOUSE
 10
0
 20
0
 30
0
 70
128
 71
10
 72
9
 73
8
 74
8
 0
VERTEX
 8
HOUSE
 10
0
 20
0
 30
0
 70
128
 71
12
 72
11
 73
10
 74
10
 0
VERTEX
 8
HOUSE
 10
0
 20
0
 30
0
 70
128
 71
1
 72
13
 73
12
 74
12
 0
VERTEX
 8
HOUSE
 10
0
 20
0
 30
0
 70
128
 71
15
 72
14
 73
1
 74
1
 0
VERTEX
 8
HOUSE
 10
0
 20
0
 30
0
 70
128
 71
140
 72
16
 73
15
 74
15
 0
VERTEX
 8
HOUSE
 10
0
 20
0
 30
0
 70
128
 71
107
 72
17
 73
106
 74
106
 0
VERTEX
 8
HOUSE
 10
0
 20
0
 30
0
 70
128
 71
109
 72
19
 73
108
 74
108
 0
VERTEX
 8
HOUSE
 10
0
 20
0
 30
0
 70
128
 71
110
 72
20
 73
109
 74
109
 0
VERTEX
 8
HOUSE
 10
0
 20
0
 30
0
 70
128
 71
117
 72
21
 73
110
 74
110
 0
VERTEX
 8
HOUSE
 10
0
 20
0
 30
0
 70
128
 71
111
 72
22
 73
115
 74
115
 0
VERTEX
 8
HOUSE
 10
0
 20
0
 30
0
 70
128
 71
112
 72
23
 73
111
 74
111
 0
VERTEX
 8
HOUSE
 10
0
 20
0
 30
0
 70
128
 71
113
 72
24
 73
112
 74
112
 0
VERTEX
 8
HOUSE
 10
0
 20
0
 30
0
 70
128
 71
141
 72
26
 73
114
 74
114
 0
VERTEX
 8
HOUSE
 10
0
 20
0
 30
0
 70
128
 71
7
 72
27
 73
142
 74
142
 0
VERTEX
 8
HOUSE
 10
0
 20
0
 30
0
 70
128
 71
29
 72
28
 73
7
 74
7
 0
VERTEX
 8
HOUSE
 10
0
 20
0
 30
0
 70
128
 71
31
 72
30
 73
29
 74
29
 0
VERTEX
 8
HOUSE
 10
0
 20
0
 30
0
 70
128
 71
33
 72
32
 73
31
 74
31
 0
VERTEX
 8
HOUSE
 10
0
 20
0
 30
0
 70
128
 71
35
 72
34
 73
33
 74
33
 0
VERTEX
 8
HOUSE
 10
0
 20
0
 30
0
 70
128
 71
7
 72
114
 73
26
 74
27
 0
VERTEX
 8
HOUSE
 10
0
 20
0
 30
0
 70
128
 71
29
 72
113
 73
25
 74
28
 0
VERTEX
 8
HOUSE
 10
0
 20
0
 30
0
 70
128
 71
31
 72
112
 73
24
 74
30
 0
VERTEX
 8
HOUSE
 10
0
 20
0
 30
0
 70
128
 71
33
 72
111
 73
23
 74
32
 0
VERTEX
 8
HOUSE
 10
0
 20
0
 30
0
 70
128
 71
35
 72
115
 73
22
 74
34
 0
VERTEX
 8
HOUSE
 10
0
 20
0
 30
0
 70
128
 71
117
 72
8
 73
9
 74
21
 0
VERTEX
 8
HOUSE
 10
0
 20
0
 30
0
 70
128
 71
110
 72
10
 73
11
 74
20
 0
VERTEX
 8
HOUSE
 10
0
 20
0
 30
0
 70
128
 71
109
 72
12
 73
13
 74
19
 0
VERTEX
 8
HOUSE
 10
0
 20
0
 30
0
 70
128
 71
108
 72
1
 73
14
 74
18
 0
VERTEX
 8
HOUSE
 10
0
 20
0
 30
0
 70
128
 71
107
 72
15
 73
16
 74
17
 0
VERTEX
 8
HOUSE
 10
0
 20
0
 30
0
 70
128
 71
227
 72
26
 73
141
 74
141
 0
VERTEX
 8
HOUSE
 10
0
 20
0
 30
0
 70
128
 71
7
 72
28
 73
25
 74
114
 0
VERTEX
 8
HOUSE
 10
0
 20
0
 30
0
 70
128
 71
113
 72
29
 73
30
 74
24
 0
VERTEX
 8
HOUSE
 10
0
 20
0
 30
0
 70
128
 71
23
 72
112
 73
31
 74
32
 0
VERTEX
 8
HOUSE
 10
0
 20
0
 30
0
 70
128
 71
22
 72
111
 73
33
 74
34
 0
VERTEX
 8
HOUSE
 10
0
 20
0
 30
0
 70
128
 71
10
 72
110
 73
21
 74
9
 0
VERTEX
 8
HOUSE
 10
0
 20
0
 30
0
 70
128
 71
12
 72
109
 73
20
 74
11
 0
VERTEX
 8
HOUSE
 10
0
 20
0
 30
0
 70
128
 71
1
 72
108
 73
19
 74
13
 0
VERTEX
 8
HOUSE
 10
0
 20
0
 30
0
 70
128
 71
15
 72
107
 73
18
 74
14
 0
VERTEX
 8
HOUSE
 10
0
 20
0
 30
0
 70
128
 71
140
 72
228
 73
17
 74
16
 0
VERTEX
 8
HOUSE
 10
0
 20
0
 30
0
 70
128
 71
116
 72
5
 73
3
 74
6
 0
VERTEX
 8
HOUSE
 10
0
 20
0
 30
0
 70
128
 71
8
 72
117
 73
6
 74
36
 0
VERTEX
 8
HOUSE
 10
0
 20
0
 30
0
 70
128
 71
2
 72
36
 73
4
 74
37
 0
VERTEX
 8
HOUSE
 10
0
 20
0
 30
0
 70
128
 71
35
 72
37
 73
5
 74
115
 0
VERTEX
 8
HOUSE
 10
0
 20
0
 30
0
 70
128
 71
6
 72
117
 73
116
 74
116
 0
VERTEX
 8
HOUSE
 10
0
 20
0
 30
0
 70
128
 71
92
 72
96
 73
95
 74
104
 0
VERTEX
 8
HOUSE
 10
0
 20
0
 30
0
 70
128
 71
92
 72
104
 73
94
 74
93
 0
VERTEX
 8
HOUSE
 10
0
 20
0
 30
0
 70
128
 71
97
 72
102
 73
101
 74
98
 0
VERTEX
 8
HOUSE
 10
0
 20
0
 30
0
 70
128
 71
101
 72
100
 73
99
 74
98
 0
VERTEX
 8
HOUSE
 10
0
 20
0
 30
0
 70
128
 71
144
 72
139
 73
76
 74
77
 0
VERTEX
 8
HOUSE
 10
0
 20
0
 30
0
 70
128
 71
81
 72
53
 73
41
 74
41
 0
VERTEX
 8
HOUSE
 10
0
 20
0
 30
0
 70
128
 71
82
 72
55
 73
81
 74
81
 0
VERTEX
 8
HOUSE
 10
0
 20
0
 30
0
 70
128
 71
83
 72
57
 73
82
 74
82
 0
VERTEX
 8
HOUSE
 10
0
 20
0
 30
0
 70
128
 71
84
 72
59
 73
83
 74
83
 0
VERTEX
 8
HOUSE
 10
0
 20
0
 30
0
 70
128
 71
148
 72
61
 73
84
 74
84
 0
VERTEX
 8
HOUSE
 10
0
 20
0
 30
0
 70
128
 71
226
 72
76
 73
139
 74
139
 0
VERTEX
 8
HOUSE
 10
0
 20
0
 30
0
 70
128
 71
119
 72
74
 73
118
 74
118
 0
VERTEX
 8
HOUSE
 10
0
 20
0
 30
0
 70
128
 71
120
 72
72
 73
119
 74
119
 0
VERTEX
 8
HOUSE
 10
0
 20
0
 30
0
 70
128
 71
137
 72
70
 73
120
 74
120
 0
VERTEX
 8
HOUSE
 10
0
 20
0
 30
0
 70
128
 71
122
 72
69
 73
121
 74
121
 0
VERTEX
 8
HOUSE
 10
0
 20
0
 30
0
 70
128
 71
123
 72
67
 73
122
 74
122
 0
VERTEX
 8
HOUSE
 10
0
 20
0
 30
0
 70
128
 71
124
 72
65
 73
123
 74
123
 0
VERTEX
 8
HOUSE
 10
0
 20
0
 30
0
 70
128
 71
138
 72
63
 73
124
 74
124
 0
VERTEX
 8
HOUSE
 10
0
 20
0
 30
0
 70
128
 71
224
 72
60
 73
147
 74
147
 0
VERTEX
 8
HOUSE
 10
0
 20
0
 30
0
 70
128
 71
126
 72
58
 73
125
 74
125
 0
VERTEX
 8
HOUSE
 10
0
 20
0
 30
0
 70
128
 71
127
 72
56
 73
126
 74
126
 0
VERTEX
 8
HOUSE
 10
0
 20
0
 30
0
 70
128
 71
128
 72
54
 73
127
 74
127
 0
VERTEX
 8
HOUSE
 10
0
 20
0
 30
0
 70
128
 71
135
 72
52
 73
128
 74
128
 0
VERTEX
 8
HOUSE
 10
0
 20
0
 30
0
 70
128
 71
130
 72
50
 73
129
 74
129
 0
VERTEX
 8
HOUSE
 10
0
 20
0
 30
0
 70
128
 71
131
 72
48
 73
130
 74
130
 0
VERTEX
 8
HOUSE
 10
0
 20
0
 30
0
 70
128
 71
132
 72
46
 73
131
 74
131
 0
VERTEX
 8
HOUSE
 10
0
 20
0
 30
0
 70
128
 71
133
 72
44
 73
132
 74
132
 0
VERTEX
 8
HOUSE
 10
0
 20
0
 30
0
 70
128
 71
143
 72
42
 73
133
 74
133
 0
VERTEX
 8
HOUSE
 10
0
 20
0
 30
0
 70
128
 71
85
 72
62
 73
145
 74
145
 0
VERTEX
 8
HOUSE
 10
0
 20
0
 30
0
 70
128
 71
86
 72
64
 73
85
 74
85
 0
VERTEX
 8
HOUSE
 10
0
 20
0
 30
0
 70
128
 71
87
 72
66
 73
86
 74
86
 0
VERTEX
 8
HOUSE
 10
0
 20
0
 30
0
 70
128
 71
88
 72
68
 73
87
 74
87
 0
VERTEX
 8
HOUSE
 10
0
 20
0
 30
0
 70
128
 71
78
 72
43
 73
146
 74
146
 0
VERTEX
 8
HOUSE
 10
0
 20
0
 30
0
 70
128
 71
79
 72
45
 73
78
 74
78
 0
VERTEX
 8
HOUSE
 10
0
 20
0
 30
0
 70
128
 71
80
 72
47
 73
79
 74
79
 0
VERTEX
 8
HOUSE
 10
0
 20
0
 30
0
 70
128
 71
105
 72
49
 73
80
 74
80
 0
VERTEX
 8
HOUSE
 10
0
 20
0
 30
0
 70
128
 71
40
 72
51
 73
105
 74
105
 0
VERTEX
 8
HOUSE
 10
0
 20
0
 30
0
 70
128
 71
90
 72
71
 73
89
 74
89
 0
VERTEX
 8
HOUSE
 10
0
 20
0
 30
0
 70
128
 71
91
 72
73
 73
90
 74
90
 0
VERTEX
 8
HOUSE
 10
0
 20
0
 30
0
 70
128
 71
103
 72
75
 73
91
 74
91
 0
VERTEX
 8
HOUSE
 10
0
 20
0
 30
0
 70
128
 71
144
 72
77
 73
103
 74
103
 0
VERTEX
 8
HOUSE
 10
0
 20
0
 30
0
 70
128
 71
225
 72
63
 73
138
 74
138
 0
VERTEX
 8
HOUSE
 10
0
 20
0
 30
0
 70
128
 71
78
 72
133
 73
42
 74
43
 0
VERTEX
 8
HOUSE
 10
0
 20
0
 30
0
 70
128
 71
79
 72
132
 73
44
 74
45
 0
VERTEX
 8
HOUSE
 10
0
 20
0
 30
0
 70
128
 71
80
 72
131
 73
46
 74
47
 0
VERTEX
 8
HOUSE
 10
0
 20
0
 30
0
 70
128
 71
105
 72
130
 73
48
 74
49
 0
VERTEX
 8
HOUSE
 10
0
 20
0
 30
0
 70
128
 71
40
 72
129
 73
50
 74
51
 0
VERTEX
 8
HOUSE
 10
0
 20
0
 30
0
 70
128
 71
135
 72
41
 73
53
 74
52
 0
VERTEX
 8
HOUSE
 10
0
 20
0
 30
0
 70
128
 71
128
 72
81
 73
55
 74
54
 0
VERTEX
 8
HOUSE
 10
0
 20
0
 30
0
 70
128
 71
127
 72
82
 73
57
 74
56
 0
VERTEX
 8
HOUSE
 10
0
 20
0
 30
0
 70
128
 71
126
 72
83
 73
59
 74
58
 0
VERTEX
 8
HOUSE
 10
0
 20
0
 30
0
 70
128
 71
125
 72
84
 73
61
 74
60
 0
VERTEX
 8
HOUSE
 10
0
 20
0
 30
0
 70
128
 71
124
 72
85
 73
64
 74
65
 0
VERTEX
 8
HOUSE
 10
0
 20
0
 30
0
 70
128
 71
123
 72
86
 73
66
 74
67
 0
VERTEX
 8
HOUSE
 10
0
 20
0
 30
0
 70
128
 71
122
 72
87
 73
68
 74
69
 0
VERTEX
 8
HOUSE
 10
0
 20
0
 30
0
 70
128
 71
90
 72
120
 73
70
 74
71
 0
VERTEX
 8
HOUSE
 10
0
 20
0
 30
0
 70
128
 71
91
 72
119
 73
72
 74
73
 0
VERTEX
 8
HOUSE
 10
0
 20
0
 30
0
 70
128
 71
103
 72
118
 73
74
 74
75
 0
VERTEX
 8
HOUSE
 10
0
 20
0
 30
0
 70
128
 71
223
 72
42
 73
143
 74
143
 0
VERTEX
 8
HOUSE
 10
0
 20
0
 30
0
 70
128
 71
133
 72
78
 73
45
 74
44
 0
VERTEX
 8
HOUSE
 10
0
 20
0
 30
0
 70
128
 71
132
 72
79
 73
47
 74
46
 0
VERTEX
 8
HOUSE
 10
0
 20
0
 30
0
 70
128
 71
48
 72
131
 73
80
 74
49
 0
VERTEX
 8
HOUSE
 10
0
 20
0
 30
0
 70
128
 71
50
 72
130
 73
105
 74
51
 0
VERTEX
 8
HOUSE
 10
0
 20
0
 30
0
 70
128
 71
81
 72
128
 73
52
 74
53
 0
VERTEX
 8
HOUSE
 10
0
 20
0
 30
0
 70
128
 71
82
 72
127
 73
54
 74
55
 0
VERTEX
 8
HOUSE
 10
0
 20
0
 30
0
 70
128
 71
83
 72
126
 73
56
 74
57
 0
VERTEX
 8
HOUSE
 10
0
 20
0
 30
0
 70
128
 71
84
 72
125
 73
58
 74
59
 0
VERTEX
 8
HOUSE
 10
0
 20
0
 30
0
 70
128
 71
148
 72
147
 73
60
 74
61
 0
VERTEX
 8
HOUSE
 10
0
 20
0
 30
0
 70
128
 71
85
 72
124
 73
63
 74
62
 0
VERTEX
 8
HOUSE
 10
0
 20
0
 30
0
 70
128
 71
86
 72
123
 73
65
 74
64
 0
VERTEX
 8
HOUSE
 10
0
 20
0
 30
0
 70
128
 71
87
 72
122
 73
67
 74
66
 0
VERTEX
 8
HOUSE
 10
0
 20
0
 30
0
 70
128
 71
88
 72
121
 73
69
 74
68
 0
VERTEX
 8
HOUSE
 10
0
 20
0
 30
0
 70
128
 71
137
 72
89
 73
71
 74
70
 0
VERTEX
 8
HOUSE
 10
0
 20
0
 30
0
 70
128
 71
120
 72
90
 73
73
 74
72
 0
VERTEX
 8
HOUSE
 10
0
 20
0
 30
0
 70
128
 71
119
 72
91
 73
75
 74
74
 0
VERTEX
 8
HOUSE
 10
0
 20
0
 30
0
 70
128
 71
118
 72
103
 73
77
 74
76
 0
VERTEX
 8
HOUSE
 10
0
 20
0
 30
0
 70
128
 71
134
 72
96
 73
92
 74
93
 0
VERTEX
 8
HOUSE
 10
0
 20
0
 30
0
 70
128
 71
41
 72
135
 73
93
 74
94
 0
VERTEX
 8
HOUSE
 10
0
 20
0
 30
0
 70
128
 71
94
 72
38
 73
41
 74
41
 0
VERTEX
 8
HOUSE
 10
0
 20
0
 30
0
 70
128
 71
95
 72
40
 73
38
 74
38
 0
VERTEX
 8
HOUSE
 10
0
 20
0
 30
0
 70
128
 71
40
 72
95
 73
96
 74
129
 0
VERTEX
 8
HOUSE
 10
0
 20
0
 30
0
 70
128
 71
136
 72
97
 73
98
 74
99
 0
VERTEX
 8
HOUSE
 10
0
 20
0
 30
0
 70
128
 71
89
 72
137
 73
99
 74
100
 0
VERTEX
 8
HOUSE
 10
0
 20
0
 30
0
 70
128
 71
39
 72
100
 73
101
 74
102
 0
VERTEX
 8
HOUSE
 10
0
 20
0
 30
0
 70
128
 71
88
 72
102
 73
97
 74
121
 0
VERTEX
 8
HOUSE
 10
0
 20
0
 30
0
 70
128
 71
136
 72
121
 73
97
 74
97
 0
VERTEX
 8
HOUSE
 10
0
 20
0
 30
0
 70
128
 71
99
 72
137
 73
136
 74
136
 0
VERTEX
 8
HOUSE
 10
0
 20
0
 30
0
 70
128
 71
134
 72
129
 73
96
 74
96
 0
VERTEX
 8
HOUSE
 10
0
 20
0
 30
0
 70
128
 71
93
 72
135
 73
134
 74
134
 0
VERTEX
 8
HOUSE
 10
0
 20
0
 30
0
 70
128
 71
39
 72
89
 73
100
 74
100
 0
VERTEX
 8
HOUSE
 10
0
 20
0
 30
0
 70
128
 71
102
 72
88
 73
39
 74
39
 0
VERTEX
 8
HOUSE
 10
0
 20
0
 30
0
 70
128
 71
2
 72
8
 73
36
 74
36
 0
VERTEX
 8
HOUSE
 10
0
 20
0
 30
0
 70
128
 71
37
 72
35
 73
2
 74
2
 0
VERTEX
 8
HOUSE
 10
0
 20
0
 30
0
 70
128
 71
104
 72
95
 73
38
 74
94
 0
VERTEX
 8
HOUSE
 10
0
 20
0
 30
0
 70
128
 71
208
 72
152
 73
150
 74
149
 0
VERTEX
 8
HOUSE
 10
0
 20
0
 30
0
 70
128
 71
151
 72
153
 73
152
 74
208
 0
VERTEX
 8
HOUSE
 10
0
 20
0
 30
0
 70
128
 71
209
 72
154
 73
153
 74
151
 0
VERTEX
 8
HOUSE
 10
0
 20
0
 30
0
 70
128
 71
210
 72
155
 73
154
 74
209
 0
VERTEX
 8
HOUSE
 10
0
 20
0
 30
0
 70
128
 71
156
 72
157
 73
155
 74
210
 0
VERTEX
 8
HOUSE
 10
0
 20
0
 30
0
 70
128
 71
158
 72
160
 73
169
 74
159
 0
VERTEX
 8
HOUSE
 10
0
 20
0
 30
0
 70
128
 71
211
 72
161
 73
160
 74
158
 0
VERTEX
 8
HOUSE
 10
0
 20
0
 30
0
 70
128
 71
212
 72
162
 73
161
 74
211
 0
VERTEX
 8
HOUSE
 10
0
 20
0
 30
0
 70
128
 71
163
 72
164
 73
162
 74
212
 0
VERTEX
 8
HOUSE
 10
0
 20
0
 30
0
 70
128
 71
163
 72
166
 73
165
 74
164
 0
VERTEX
 8
HOUSE
 10
0
 20
0
 30
0
 70
128
 71
159
 72
169
 73
168
 74
167
 0
VERTEX
 8
HOUSE
 10
0
 20
0
 30
0
 70
128
 71
156
 72
167
 73
168
 74
157
 0
VERTEX
 8
HOUSE
 10
0
 20
0
 30
0
 70
128
 71
170
 72
173
 73
172
 74
171
 0
VERTEX
 8
HOUSE
 10
0
 20
0
 30
0
 70
128
 71
174
 72
175
 73
172
 74
173
 0
VERTEX
 8
HOUSE
 10
0
 20
0
 30
0
 70
128
 71
213
 72
176
 73
175
 74
174
 0
VERTEX
 8
HOUSE
 10
0
 20
0
 30
0
 70
128
 71
214
 72
177
 73
176
 74
213
 0
VERTEX
 8
HOUSE
 10
0
 20
0
 30
0
 70
128
 71
178
 72
181
 73
180
 74
179
 0
VERTEX
 8
HOUSE
 10
0
 20
0
 30
0
 70
128
 71
182
 72
183
 73
181
 74
178
 0
VERTEX
 8
HOUSE
 10
0
 20
0
 30
0
 70
128
 71
184
 72
185
 73
183
 74
182
 0
VERTEX
 8
HOUSE
 10
0
 20
0
 30
0
 70
128
 71
186
 72
187
 73
185
 74
184
 0
VERTEX
 8
HOUSE
 10
0
 20
0
 30
0
 70
128
 71
215
 72
190
 73
189
 74
188
 0
VERTEX
 8
HOUSE
 10
0
 20
0
 30
0
 70
128
 71
216
 72
191
 73
190
 74
215
 0
VERTEX
 8
HOUSE
 10
0
 20
0
 30
0
 70
128
 71
217
 72
192
 73
191
 74
216
 0
VERTEX
 8
HOUSE
 10
0
 20
0
 30
0
 70
128
 71
218
 72
193
 73
192
 74
217
 0
VERTEX
 8
HOUSE
 10
0
 20
0
 30
0
 70
128
 71
219
 72
205
 73
193
 74
218
 0
VERTEX
 8
HOUSE
 10
0
 20
0
 30
0
 70
128
 71
220
 72
195
 73
204
 74
194
 0
VERTEX
 8
HOUSE
 10
0
 20
0
 30
0
 70
128
 71
221
 72
196
 73
195
 74
220
 0
VERTEX
 8
HOUSE
 10
0
 20
0
 30
0
 70
128
 71
222
 72
198
 73
196
 74
221
 0
VERTEX
 8
HOUSE
 10
0
 20
0
 30
0
 70
128
 71
197
 72
199
 73
198
 74
222
 0
VERTEX
 8
HOUSE
 10
0
 20
0
 30
0
 70
128
 71
197
 72
201
 73
200
 74
199
 0
VERTEX
 8
HOUSE
 10
0
 20
0
 30
0
 70
128
 71
194
 72
204
 73
203
 74
202
 0
VERTEX
 8
HOUSE
 10
0
 20
0
 30
0
 70
128
 71
219
 72
202
 73
203
 74
205
 0
VERTEX
 8
HOUSE
 10
0
 20
0
 30
0
 70
128
 71
179
 72
180
 73
207
 74
206
 0
VERTEX
 8
HOUSE
 10
0
 20
0
 30
0
 70
128
 71
214
 72
206
 73
207
 74
177
 0
VERTEX
 8
HOUSE
 10
0
 20
0
 30
0
 70
128
 71
127
 72
126
 73
191
 74
192
 0
VERTEX
 8
HOUSE
 10
0
 20
0
 30
0
 70
128
 71
135
 72
128
 73
193
 74
205
 0
VERTEX
 8
HOUSE
 10
0
 20
0
 30
0
 70
128
 71
134
 72
135
 73
205
 74
203
 0
VERTEX
 8
HOUSE
 10
0
 20
0
 30
0
 70
128
 71
128
 72
127
 73
192
 74
193
 0
VERTEX
 8
HOUSE
 10
0
 20
0
 30
0
 70
128
 71
126
 72
125
 73
190
 74
191
 0
VERTEX
 8
HOUSE
 10
0
 20
0
 30
0
 70
128
 71
204
 72
129
 73
134
 74
203
 0
VERTEX
 8
HOUSE
 10
0
 20
0
 30
0
 70
128
 71
195
 72
130
 73
129
 74
204
 0
VERTEX
 8
HOUSE
 10
0
 20
0
 30
0
 70
128
 71
196
 72
131
 73
130
 74
195
 0
VERTEX
 8
HOUSE
 10
0
 20
0
 30
0
 70
128
 71
198
 72
132
 73
131
 74
196
 0
VERTEX
 8
HOUSE
 10
0
 20
0
 30
0
 70
128
 71
199
 72
133
 73
132
 74
198
 0
VERTEX
 8
HOUSE
 10
0
 20
0
 30
0
 70
128
 71
200
 72
143
 73
133
 74
199
 0
VERTEX
 8
HOUSE
 10
0
 20
0
 30
0
 70
128
 71
187
 72
138
 73
124
 74
185
 0
VERTEX
 8
HOUSE
 10
0
 20
0
 30
0
 70
128
 71
185
 72
124
 73
123
 74
183
 0
VERTEX
 8
HOUSE
 10
0
 20
0
 30
0
 70
128
 71
183
 72
123
 73
122
 74
181
 0
VERTEX
 8
HOUSE
 10
0
 20
0
 30
0
 70
128
 71
181
 72
122
 73
121
 74
180
 0
VERTEX
 8
HOUSE
 10
0
 20
0
 30
0
 70
128
 71
180
 72
121
 73
136
 74
207
 0
VERTEX
 8
HOUSE
 10
0
 20
0
 30
0
 70
128
 71
136
 72
137
 73
177
 74
207
 0
VERTEX
 8
HOUSE
 10
0
 20
0
 30
0
 70
128
 71
137
 72
120
 73
176
 74
177
 0
VERTEX
 8
HOUSE
 10
0
 20
0
 30
0
 70
128
 71
120
 72
119
 73
175
 74
176
 0
VERTEX
 8
HOUSE
 10
0
 20
0
 30
0
 70
128
 71
119
 72
118
 73
172
 74
175
 0
VERTEX
 8
HOUSE
 10
0
 20
0
 30
0
 70
128
 71
118
 72
226
 73
171
 74
172
 0
VERTEX
 8
HOUSE
 10
0
 20
0
 30
0
 70
128
 71
165
 72
141
 73
114
 74
164
 0
VERTEX
 8
HOUSE
 10
0
 20
0
 30
0
 70
128
 71
164
 72
114
 73
113
 74
162
 0
VERTEX
 8
HOUSE
 10
0
 20
0
 30
0
 70
128
 71
162
 72
113
 73
112
 74
161
 0
VERTEX
 8
HOUSE
 10
0
 20
0
 30
0
 70
128
 71
161
 72
112
 73
111
 74
160
 0
VERTEX
 8
HOUSE
 10
0
 20
0
 30
0
 70
128
 71
160
 72
111
 73
115
 74
169
 0
VERTEX
 8
HOUSE
 10
0
 20
0
 30
0
 70
128
 71
169
 72
115
 73
116
 74
168
 0
VERTEX
 8
HOUSE
 10
0
 20
0
 30
0
 70
128
 71
116
 72
117
 73
157
 74
168
 0
VERTEX
 8
HOUSE
 10
0
 20
0
 30
0
 70
128
 71
117
 72
110
 73
155
 74
157
 0
VERTEX
 8
HOUSE
 10
0
 20
0
 30
0
 70
128
 71
110
 72
109
 73
154
 74
155
 0
VERTEX
 8
HOUSE
 10
0
 20
0
 30
0
 70
128
 71
109
 72
108
 73
153
 74
154
 0
VERTEX
 8
HOUSE
 10
0
 20
0
 30
0
 70
128
 71
108
 72
107
 73
152
 74
153
 0
VERTEX
 8
HOUSE
 10
0
 20
0
 30
0
 70
128
 71
107
 72
106
 73
150
 74
152
 0
VERTEX
 8
HOUSE
 10
0
 20
0
 30
0
 70
128
 71
42
 72
223
 73
146
 74
43
 0
VERTEX
 8
HOUSE
 10
0
 20
0
 30
0
 70
128
 71
200
 72
201
 73
223
 74
143
 0
VERTEX
 8
HOUSE
 10
0
 20
0
 30
0
 70
128
 71
224
 72
125
 73
60
 74
60
 0
VERTEX
 8
HOUSE
 10
0
 20
0
 30
0
 70
128
 71
147
 72
188
 73
189
 74
224
 0
VERTEX
 8
HOUSE
 10
0
 20
0
 30
0
 70
128
 71
138
 72
187
 73
186
 74
225
 0
VERTEX
 8
HOUSE
 10
0
 20
0
 30
0
 70
128
 71
226
 72
118
 73
76
 74
76
 0
VERTEX
 8
HOUSE
 10
0
 20
0
 30
0
 70
128
 71
139
 72
170
 73
171
 74
226
 0
VERTEX
 8
HOUSE
 10
0
 20
0
 30
0
 70
128
 71
26
 72
227
 73
142
 74
27
 0
VERTEX
 8
HOUSE
 10
0
 20
0
 30
0
 70
128
 71
227
 72
141
 73
165
 74
166
 0
VERTEX
 8
HOUSE
 10
0
 20
0
 30
0
 70
128
 71
228
 72
106
 73
17
 74
17
 0
VERTEX
 8
HOUSE
 10
0
 20
0
 30
0
 70
128
 71
228
 72
149
 73
150
 74
106
 0
VERTEX
 8
HOUSE
 10
0
 20
0
 30
0
 70
128
 71
5
 72
116
 73
115
 74
115
 0
VERTEX
 8
HOUSE
 10
0
 20
0
 30
0
 70
128
 71
107
 72
108
 73
18
 74
18
 0
VERTEX
 8
HOUSE
 10
0
 20
0
 30
0
 70
128
 71
113
 72
114
 73
25
 74
25
 0
VERTEX
 8
HOUSE
 10
0
 20
0
 30
0
 70
128
 71
231
 72
232
 73
233
 74
234
 0
VERTEX
 8
HOUSE
 10
0
 20
0
 30
0
 70
128
 71
352
 72
235
 73
353
 74
354
 0
VERTEX
 8
HOUSE
 10
0
 20
0
 30
0
 70
128
 71
355
 72
356
 73
236
 74
237
 0
VERTEX
 8
HOUSE
 10
0
 20
0
 30
0
 70
128
 71
238
 72
357
 73
358
 74
239
 0
VERTEX
 8
HOUSE
 10
0
 20
0
 30
0
 70
128
 71
242
 72
360
 73
243
 74
359
 0
VERTEX
 8
HOUSE
 10
0
 20
0
 30
0
 70
128
 71
361
 72
245
 73
362
 74
244
 0
VERTEX
 8
HOUSE
 10
0
 20
0
 30
0
 70
128
 71
363
 72
247
 73
246
 74
364
 0
VERTEX
 8
HOUSE
 10
0
 20
0
 30
0
 70
128
 71
366
 72
368
 73
248
 74
367
 0
VERTEX
 8
HOUSE
 10
0
 20
0
 30
0
 70
128
 71
248
 72
368
 73
369
 74
241
 0
VERTEX
 8
HOUSE
 10
0
 20
0
 30
0
 70
128
 71
241
 72
365
 73
367
 74
248
 0
VERTEX
 8
HOUSE
 10
0
 20
0
 30
0
 70
128
 71
390
 72
391
 73
396
 74
258
 0
VERTEX
 8
HOUSE
 10
0
 20
0
 30
0
 70
128
 71
254
 72
253
 73
268
 74
266
 0
VERTEX
 8
HOUSE
 10
0
 20
0
 30
0
 70
128
 71
252
 72
262
 73
264
 74
399
 0
VERTEX
 8
HOUSE
 10
0
 20
0
 30
0
 70
128
 71
264
 72
400
 73
267
 74
399
 0
VERTEX
 8
HOUSE
 10
0
 20
0
 30
0
 70
128
 71
254
 72
261
 73
260
 74
257
 0
VERTEX
 8
HOUSE
 10
0
 20
0
 30
0
 70
128
 71
267
 72
268
 73
253
 74
399
 0
VERTEX
 8
HOUSE
 10
0
 20
0
 30
0
 70
128
 71
265
 72
261
 73
254
 74
266
 0
VERTEX
 8
HOUSE
 10
0
 20
0
 30
0
 70
128
 71
269
 72
270
 73
272
 74
271
 0
VERTEX
 8
HOUSE
 10
0
 20
0
 30
0
 70
128
 71
273
 72
274
 73
275
 74
376
 0
VERTEX
 8
HOUSE
 10
0
 20
0
 30
0
 70
128
 71
276
 72
277
 73
378
 74
377
 0
VERTEX
 8
HOUSE
 10
0
 20
0
 30
0
 70
128
 71
278
 72
279
 73
280
 74
379
 0
VERTEX
 8
HOUSE
 10
0
 20
0
 30
0
 70
128
 71
289
 72
283
 73
282
 74
281
 0
VERTEX
 8
HOUSE
 10
0
 20
0
 30
0
 70
128
 71
393
 72
290
 73
229
 74
229
 0
VERTEX
 8
HOUSE
 10
0
 20
0
 30
0
 70
128
 71
294
 72
231
 73
234
 74
296
 0
VERTEX
 8
HOUSE
 10
0
 20
0
 30
0
 70
128
 71
231
 72
294
 73
295
 74
232
 0
VERTEX
 8
HOUSE
 10
0
 20
0
 30
0
 70
128
 71
296
 72
234
 73
233
 74
297
 0
VERTEX
 8
HOUSE
 10
0
 20
0
 30
0
 70
128
 71
297
 72
233
 73
232
 74
295
 0
VERTEX
 8
HOUSE
 10
0
 20
0
 30
0
 70
128
 71
298
 72
299
 73
297
 74
295
 0
VERTEX
 8
HOUSE
 10
0
 20
0
 30
0
 70
128
 71
299
 72
354
 73
353
 74
301
 0
VERTEX
 8
HOUSE
 10
0
 20
0
 30
0
 70
128
 71
299
 72
298
 73
352
 74
354
 0
VERTEX
 8
HOUSE
 10
0
 20
0
 30
0
 70
128
 71
301
 72
353
 73
235
 74
302
 0
VERTEX
 8
HOUSE
 10
0
 20
0
 30
0
 70
128
 71
302
 72
235
 73
352
 74
298
 0
VERTEX
 8
HOUSE
 10
0
 20
0
 30
0
 70
128
 71
302
 72
293
 73
304
 74
301
 0
VERTEX
 8
HOUSE
 10
0
 20
0
 30
0
 70
128
 71
293
 72
355
 73
237
 74
304
 0
VERTEX
 8
HOUSE
 10
0
 20
0
 30
0
 70
128
 71
303
 72
236
 73
356
 74
292
 0
VERTEX
 8
HOUSE
 10
0
 20
0
 30
0
 70
128
 71
292
 72
356
 73
355
 74
293
 0
VERTEX
 8
HOUSE
 10
0
 20
0
 30
0
 70
128
 71
306
 72
238
 73
239
 74
307
 0
VERTEX
 8
HOUSE
 10
0
 20
0
 30
0
 70
128
 71
305
 72
357
 73
238
 74
306
 0
VERTEX
 8
HOUSE
 10
0
 20
0
 30
0
 70
128
 71
358
 72
290
 73
307
 74
239
 0
VERTEX
 8
HOUSE
 10
0
 20
0
 30
0
 70
128
 71
290
 72
358
 73
357
 74
305
 0
VERTEX
 8
HOUSE
 10
0
 20
0
 30
0
 70
128
 71
301
 72
305
 73
306
 74
299
 0
VERTEX
 8
HOUSE
 10
0
 20
0
 30
0
 70
128
 71
236
 72
303
 73
304
 74
237
 0
VERTEX
 8
HOUSE
 10
0
 20
0
 30
0
 70
128
 71
395
 72
240
 73
250
 74
250
 0
VERTEX
 8
HOUSE
 10
0
 20
0
 30
0
 70
128
 71
310
 72
312
 73
360
 74
242
 0
VERTEX
 8
HOUSE
 10
0
 20
0
 30
0
 70
128
 71
242
 72
359
 73
311
 74
310
 0
VERTEX
 8
HOUSE
 10
0
 20
0
 30
0
 70
128
 71
312
 72
313
 73
243
 74
360
 0
VERTEX
 8
HOUSE
 10
0
 20
0
 30
0
 70
128
 71
313
 72
311
 73
359
 74
243
 0
VERTEX
 8
HOUSE
 10
0
 20
0
 30
0
 70
128
 71
314
 72
311
 73
313
 74
315
 0
VERTEX
 8
HOUSE
 10
0
 20
0
 30
0
 70
128
 71
315
 72
316
 73
362
 74
245
 0
VERTEX
 8
HOUSE
 10
0
 20
0
 30
0
 70
128
 71
315
 72
245
 73
361
 74
314
 0
VERTEX
 8
HOUSE
 10
0
 20
0
 30
0
 70
128
 71
316
 72
317
 73
244
 74
362
 0
VERTEX
 8
HOUSE
 10
0
 20
0
 30
0
 70
128
 71
317
 72
314
 73
361
 74
244
 0
VERTEX
 8
HOUSE
 10
0
 20
0
 30
0
 70
128
 71
317
 72
316
 73
319
 74
308
 0
VERTEX
 8
HOUSE
 10
0
 20
0
 30
0
 70
128
 71
308
 72
319
 73
247
 74
363
 0
VERTEX
 8
HOUSE
 10
0
 20
0
 30
0
 70
128
 71
318
 72
309
 73
364
 74
246
 0
VERTEX
 8
HOUSE
 10
0
 20
0
 30
0
 70
128
 71
309
 72
308
 73
363
 74
364
 0
VERTEX
 8
HOUSE
 10
0
 20
0
 30
0
 70
128
 71
249
 72
369
 73
368
 74
366
 0
VERTEX
 8
HOUSE
 10
0
 20
0
 30
0
 70
128
 71
365
 72
249
 73
366
 74
367
 0
VERTEX
 8
HOUSE
 10
0
 20
0
 30
0
 70
128
 71
316
 72
315
 73
249
 74
365
 0
VERTEX
 8
HOUSE
 10
0
 20
0
 30
0
 70
128
 71
246
 72
247
 73
319
 74
318
 0
VERTEX
 8
HOUSE
 10
0
 20
0
 30
0
 70
128
 71
328
 72
386
 73
371
 74
323
 0
VERTEX
 8
HOUSE
 10
0
 20
0
 30
0
 70
128
 71
325
 72
327
 73
388
 74
373
 0
VERTEX
 8
HOUSE
 10
0
 20
0
 30
0
 70
128
 71
371
 72
385
 73
326
 74
323
 0
VERTEX
 8
HOUSE
 10
0
 20
0
 30
0
 70
128
 71
394
 72
342
 73
251
 74
251
 0
VERTEX
 8
HOUSE
 10
0
 20
0
 30
0
 70
128
 71
322
 72
387
 73
372
 74
321
 0
VERTEX
 8
HOUSE
 10
0
 20
0
 30
0
 70
128
 71
386
 72
256
 73
397
 74
397
 0
VERTEX
 8
HOUSE
 10
0
 20
0
 30
0
 70
128
 71
320
 72
240
 73
370
 74
324
 0
VERTEX
 8
HOUSE
 10
0
 20
0
 30
0
 70
128
 71
382
 72
387
 73
322
 74
300
 0
VERTEX
 8
HOUSE
 10
0
 20
0
 30
0
 70
128
 71
389
 72
374
 73
375
 74
375
 0
VERTEX
 8
HOUSE
 10
0
 20
0
 30
0
 70
128
 71
329
 72
269
 73
271
 74
332
 0
VERTEX
 8
HOUSE
 10
0
 20
0
 30
0
 70
128
 71
269
 72
329
 73
330
 74
270
 0
VERTEX
 8
HOUSE
 10
0
 20
0
 30
0
 70
128
 71
332
 72
271
 73
272
 74
331
 0
VERTEX
 8
HOUSE
 10
0
 20
0
 30
0
 70
128
 71
331
 72
272
 73
270
 74
330
 0
VERTEX
 8
HOUSE
 10
0
 20
0
 30
0
 70
128
 71
333
 72
335
 73
331
 74
330
 0
VERTEX
 8
HOUSE
 10
0
 20
0
 30
0
 70
128
 71
335
 72
376
 73
275
 74
336
 0
VERTEX
 8
HOUSE
 10
0
 20
0
 30
0
 70
128
 71
335
 72
333
 73
273
 74
376
 0
VERTEX
 8
HOUSE
 10
0
 20
0
 30
0
 70
128
 71
336
 72
275
 73
274
 74
334
 0
VERTEX
 8
HOUSE
 10
0
 20
0
 30
0
 70
128
 71
334
 72
274
 73
273
 74
333
 0
VERTEX
 8
HOUSE
 10
0
 20
0
 30
0
 70
128
 71
334
 72
339
 73
338
 74
336
 0
VERTEX
 8
HOUSE
 10
0
 20
0
 30
0
 70
128
 71
339
 72
276
 73
377
 74
338
 0
VERTEX
 8
HOUSE
 10
0
 20
0
 30
0
 70
128
 71
344
 72
378
 73
277
 74
337
 0
VERTEX
 8
HOUSE
 10
0
 20
0
 30
0
 70
128
 71
337
 72
277
 73
276
 74
339
 0
VERTEX
 8
HOUSE
 10
0
 20
0
 30
0
 70
128
 71
340
 72
278
 73
379
 74
343
 0
VERTEX
 8
HOUSE
 10
0
 20
0
 30
0
 70
128
 71
341
 72
279
 73
278
 74
340
 0
VERTEX
 8
HOUSE
 10
0
 20
0
 30
0
 70
128
 71
280
 72
342
 73
343
 74
379
 0
VERTEX
 8
HOUSE
 10
0
 20
0
 30
0
 70
128
 71
342
 72
280
 73
279
 74
341
 0
VERTEX
 8
HOUSE
 10
0
 20
0
 30
0
 70
128
 71
336
 72
341
 73
340
 74
335
 0
VERTEX
 8
HOUSE
 10
0
 20
0
 30
0
 70
128
 71
378
 72
344
 73
338
 74
377
 0
VERTEX
 8
HOUSE
 10
0
 20
0
 30
0
 70
128
 71
291
 72
325
 73
373
 74
230
 0
VERTEX
 8
HOUSE
 10
0
 20
0
 30
0
 70
128
 71
380
 72
282
 73
283
 74
345
 0
VERTEX
 8
HOUSE
 10
0
 20
0
 30
0
 70
128
 71
351
 72
289
 73
281
 74
381
 0
VERTEX
 8
HOUSE
 10
0
 20
0
 30
0
 70
128
 71
346
 72
345
 73
283
 74
284
 0
VERTEX
 8
HOUSE
 10
0
 20
0
 30
0
 70
128
 71
347
 72
346
 73
284
 74
285
 0
VERTEX
 8
HOUSE
 10
0
 20
0
 30
0
 70
128
 71
348
 72
347
 73
285
 74
286
 0
VERTEX
 8
HOUSE
 10
0
 20
0
 30
0
 70
128
 71
349
 72
348
 73
286
 74
287
 0
VERTEX
 8
HOUSE
 10
0
 20
0
 30
0
 70
128
 71
350
 72
349
 73
287
 74
288
 0
VERTEX
 8
HOUSE
 10
0
 20
0
 30
0
 70
128
 71
351
 72
350
 73
288
 74
289
 0
VERTEX
 8
HOUSE
 10
0
 20
0
 30
0
 70
128
 71
391
 72
390
 73
383
 74
392
 0
VERTEX
 8
HOUSE
 10
0
 20
0
 30
0
 70
128
 71
399
 72
253
 73
384
 74
252
 0
VERTEX
 8
HOUSE
 10
0
 20
0
 30
0
 70
128
 71
384
 72
253
 73
254
 74
257
 0
VERTEX
 8
HOUSE
 10
0
 20
0
 30
0
 70
128
 71
255
 72
393
 73
383
 74
390
 0
VERTEX
 8
HOUSE
 10
0
 20
0
 30
0
 70
128
 71
256
 72
394
 73
384
 74
257
 0
VERTEX
 8
HOUSE
 10
0
 20
0
 30
0
 70
128
 71
384
 72
393
 73
229
 74
252
 0
VERTEX
 8
HOUSE
 10
0
 20
0
 30
0
 70
128
 71
250
 72
392
 73
383
 74
383
 0
VERTEX
 8
HOUSE
 10
0
 20
0
 30
0
 70
128
 71
398
 72
258
 73
387
 74
382
 0
VERTEX
 8
HOUSE
 10
0
 20
0
 30
0
 70
128
 71
373
 72
388
 73
264
 74
262
 0
VERTEX
 8
HOUSE
 10
0
 20
0
 30
0
 70
128
 71
396
 72
372
 73
387
 74
258
 0
VERTEX
 8
HOUSE
 10
0
 20
0
 30
0
 70
128
 71
371
 72
386
 73
397
 74
260
 0
VERTEX
 8
HOUSE
 10
0
 20
0
 30
0
 70
128
 71
240
 72
395
 73
259
 74
370
 0
VERTEX
 8
HOUSE
 10
0
 20
0
 30
0
 70
128
 71
265
 72
385
 73
261
 74
261
 0
VERTEX
 8
HOUSE
 10
0
 20
0
 30
0
 70
128
 71
385
 72
265
 73
266
 74
374
 0
VERTEX
 8
HOUSE
 10
0
 20
0
 30
0
 70
128
 71
375
 72
374
 73
266
 74
268
 0
VERTEX
 8
HOUSE
 10
0
 20
0
 30
0
 70
128
 71
375
 72
268
 73
267
 74
389
 0
VERTEX
 8
HOUSE
 10
0
 20
0
 30
0
 70
128
 71
389
 72
267
 73
400
 74
388
 0
VERTEX
 8
HOUSE
 10
0
 20
0
 30
0
 70
128
 71
400
 72
264
 73
388
 74
388
 0
VERTEX
 8
HOUSE
 10
0
 20
0
 30
0
 70
128
 71
251
 72
383
 73
394
 74
394
 0
VERTEX
 8
HOUSE
 10
0
 20
0
 30
0
 70
128
 71
251
 72
250
 73
383
 74
383
 0
VERTEX
 8
HOUSE
 10
0
 20
0
 30
0
 70
128
 71
250
 72
251
 73
259
 74
395
 0
VERTEX
 8
HOUSE
 10
0
 20
0
 30
0
 70
128
 71
393
 72
307
 73
290
 74
290
 0
VERTEX
 8
HOUSE
 10
0
 20
0
 30
0
 70
128
 71
229
 72
290
 73
305
 74
230
 0
VERTEX
 8
HOUSE
 10
0
 20
0
 30
0
 70
128
 71
393
 72
255
 73
307
 74
307
 0
VERTEX
 8
HOUSE
 10
0
 20
0
 30
0
 70
128
 71
230
 72
263
 73
229
 74
229
 0
VERTEX
 8
HOUSE
 10
0
 20
0
 30
0
 70
128
 71
306
 72
307
 73
255
 74
382
 0
VERTEX
 8
HOUSE
 10
0
 20
0
 30
0
 70
128
 71
230
 72
305
 73
304
 74
303
 0
VERTEX
 8
HOUSE
 10
0
 20
0
 30
0
 70
128
 71
305
 72
301
 73
304
 74
304
 0
VERTEX
 8
HOUSE
 10
0
 20
0
 30
0
 70
128
 71
297
 72
299
 73
306
 74
306
 0
VERTEX
 8
HOUSE
 10
0
 20
0
 30
0
 70
128
 71
382
 72
296
 73
297
 74
306
 0
VERTEX
 8
HOUSE
 10
0
 20
0
 30
0
 70
128
 71
303
 72
292
 73
291
 74
230
 0
VERTEX
 8
HOUSE
 10
0
 20
0
 30
0
 70
128
 71
292
 72
293
 73
291
 74
291
 0
VERTEX
 8
HOUSE
 10
0
 20
0
 30
0
 70
128
 71
300
 72
294
 73
296
 74
382
 0
VERTEX
 8
HOUSE
 10
0
 20
0
 30
0
 70
128
 71
293
 72
302
 73
291
 74
291
 0
VERTEX
 8
HOUSE
 10
0
 20
0
 30
0
 70
128
 71
295
 72
294
 73
300
 74
300
 0
VERTEX
 8
HOUSE
 10
0
 20
0
 30
0
 70
128
 71
291
 72
302
 73
298
 74
300
 0
VERTEX
 8
HOUSE
 10
0
 20
0
 30
0
 70
128
 71
298
 72
295
 73
300
 74
300
 0
VERTEX
 8
HOUSE
 10
0
 20
0
 30
0
 70
128
 71
384
 72
383
 73
393
 74
393
 0
VERTEX
 8
HOUSE
 10
0
 20
0
 30
0
 70
128
 71
394
 72
383
 73
384
 74
384
 0
VERTEX
 8
HOUSE
 10
0
 20
0
 30
0
 70
128
 71
370
 72
259
 73
251
 74
251
 0
VERTEX
 8
HOUSE
 10
0
 20
0
 30
0
 70
128
 71
251
 72
342
 73
341
 74
370
 0
VERTEX
 8
HOUSE
 10
0
 20
0
 30
0
 70
128
 71
256
 72
386
 73
340
 74
343
 0
VERTEX
 8
HOUSE
 10
0
 20
0
 30
0
 70
128
 71
394
 72
343
 73
342
 74
342
 0
VERTEX
 8
HOUSE
 10
0
 20
0
 30
0
 70
128
 71
394
 72
256
 73
343
 74
343
 0
VERTEX
 8
HOUSE
 10
0
 20
0
 30
0
 70
128
 71
370
 72
341
 73
338
 74
344
 0
VERTEX
 8
HOUSE
 10
0
 20
0
 30
0
 70
128
 71
386
 72
332
 73
331
 74
340
 0
VERTEX
 8
HOUSE
 10
0
 20
0
 30
0
 70
128
 71
341
 72
336
 73
338
 74
338
 0
VERTEX
 8
HOUSE
 10
0
 20
0
 30
0
 70
128
 71
331
 72
335
 73
340
 74
340
 0
VERTEX
 8
HOUSE
 10
0
 20
0
 30
0
 70
128
 71
332
 72
386
 73
328
 74
329
 0
VERTEX
 8
HOUSE
 10
0
 20
0
 30
0
 70
128
 71
344
 72
337
 73
324
 74
370
 0
VERTEX
 8
HOUSE
 10
0
 20
0
 30
0
 70
128
 71
337
 72
339
 73
324
 74
324
 0
VERTEX
 8
HOUSE
 10
0
 20
0
 30
0
 70
128
 71
328
 72
330
 73
329
 74
329
 0
VERTEX
 8
HOUSE
 10
0
 20
0
 30
0
 70
128
 71
328
 72
333
 73
330
 74
330
 0
VERTEX
 8
HOUSE
 10
0
 20
0
 30
0
 70
128
 71
339
 72
334
 73
324
 74
324
 0
VERTEX
 8
HOUSE
 10
0
 20
0
 30
0
 70
128
 71
333
 72
328
 73
324
 74
334
 0
VERTEX
 8
HOUSE
 10
0
 20
0
 30
0
 70
128
 71
241
 72
369
 73
392
 74
392
 0
VERTEX
 8
HOUSE
 10
0
 20
0
 30
0
 70
128
 71
241
 72
392
 73
250
 74
250
 0
VERTEX
 8
HOUSE
 10
0
 20
0
 30
0
 70
128
 71
250
 72
240
 73
365
 74
241
 0
VERTEX
 8
HOUSE
 10
0
 20
0
 30
0
 70
128
 71
391
 72
369
 73
249
 74
372
 0
VERTEX
 8
HOUSE
 10
0
 20
0
 30
0
 70
128
 71
369
 72
391
 73
392
 74
392
 0
VERTEX
 8
HOUSE
 10
0
 20
0
 30
0
 70
128
 71
372
 72
249
 73
313
 74
312
 0
VERTEX
 8
HOUSE
 10
0
 20
0
 30
0
 70
128
 71
372
 72
396
 73
391
 74
391
 0
VERTEX
 8
HOUSE
 10
0
 20
0
 30
0
 70
128
 71
249
 72
315
 73
313
 74
313
 0
VERTEX
 8
HOUSE
 10
0
 20
0
 30
0
 70
128
 71
319
 72
316
 73
365
 74
365
 0
VERTEX
 8
HOUSE
 10
0
 20
0
 30
0
 70
128
 71
240
 72
318
 73
319
 74
365
 0
VERTEX
 8
HOUSE
 10
0
 20
0
 30
0
 70
128
 71
312
 72
310
 73
321
 74
372
 0
VERTEX
 8
HOUSE
 10
0
 20
0
 30
0
 70
128
 71
310
 72
311
 73
321
 74
321
 0
VERTEX
 8
HOUSE
 10
0
 20
0
 30
0
 70
128
 71
320
 72
309
 73
318
 74
240
 0
VERTEX
 8
HOUSE
 10
0
 20
0
 30
0
 70
128
 71
308
 72
309
 73
320
 74
320
 0
VERTEX
 8
HOUSE
 10
0
 20
0
 30
0
 70
128
 71
311
 72
314
 73
321
 74
321
 0
VERTEX
 8
HOUSE
 10
0
 20
0
 30
0
 70
128
 71
314
 72
317
 73
320
 74
321
 0
VERTEX
 8
HOUSE
 10
0
 20
0
 30
0
 70
128
 71
317
 72
308
 73
320
 74
320
 0
VERTEX
 8
HOUSE
 10
0
 20
0
 30
0
 70
128
 71
287
 72
286
 73
285
 74
285
 0
VERTEX
 8
HOUSE
 10
0
 20
0
 30
0
 70
128
 71
284
 72
288
 73
287
 74
285
 0
VERTEX
 8
HOUSE
 10
0
 20
0
 30
0
 70
128
 71
283
 72
289
 73
288
 74
284
 0
VERTEX
 8
HOUSE
 10
0
 20
0
 30
0
 70
128
 71
261
 72
385
 73
371
 74
260
 0
VERTEX
 8
HOUSE
 10
0
 20
0
 30
0
 70
128
 71
374
 72
389
 73
388
 74
385
 0
VERTEX
 8
HOUSE
 10
0
 20
0
 30
0
 70
128
 71
388
 72
348
 73
349
 74
385
 0
VERTEX
 8
HOUSE
 10
0
 20
0
 30
0
 70
128
 71
388
 72
346
 73
347
 74
347
 0
VERTEX
 8
HOUSE
 10
0
 20
0
 30
0
 70
128
 71
349
 72
350
 73
385
 74
385
 0
VERTEX
 8
HOUSE
 10
0
 20
0
 30
0
 70
128
 71
350
 72
351
 73
385
 74
385
 0
VERTEX
 8
HOUSE
 10
0
 20
0
 30
0
 70
128
 71
388
 72
345
 73
346
 74
346
 0
VERTEX
 8
HOUSE
 10
0
 20
0
 30
0
 70
128
 71
388
 72
327
 73
380
 74
345
 0
VERTEX
 8
HOUSE
 10
0
 20
0
 30
0
 70
128
 71
385
 72
351
 73
381
 74
326
 0
VERTEX
 8
HOUSE
 10
0
 20
0
 30
0
 70
128
 71
388
 72
347
 73
348
 74
348
 0
VERTEX
 8
HOUSE
 10
0
 20
0
 30
0
 70
128
 71
229
 72
263
 73
262
 74
252
 0
VERTEX
 8
HOUSE
 10
0
 20
0
 30
0
 70
128
 71
263
 72
230
 73
373
 74
262
 0
VERTEX
 8
HOUSE
 10
0
 20
0
 30
0
 70
128
 71
257
 72
260
 73
397
 74
256
 0
VERTEX
 8
HOUSE
 10
0
 20
0
 30
0
 70
128
 71
398
 72
382
 73
255
 74
255
 0
VERTEX
 8
HOUSE
 10
0
 20
0
 30
0
 70
128
 71
390
 72
258
 73
398
 74
255
 0
VERTEX
 8
HOUSE
 10
0
 20
0
 30
0
 70
128
 71
401
 72
409
 73
410
 74
402
 0
VERTEX
 8
HOUSE
 10
0
 20
0
 30
0
 70
128
 71
402
 72
410
 73
411
 74
403
 0
VERTEX
 8
HOUSE
 10
0
 20
0
 30
0
 70
128
 71
403
 72
411
 73
412
 74
404
 0
VERTEX
 8
HOUSE
 10
0
 20
0
 30
0
 70
128
 71
404
 72
412
 73
413
 74
405
 0
VERTEX
 8
HOUSE
 10
0
 20
0
 30
0
 70
128
 71
405
 72
413
 73
414
 74
406
 0
VERTEX
 8
HOUSE
 10
0
 20
0
 30
0
 70
128
 71
406
 72
414
 73
415
 74
407
 0
VERTEX
 8
HOUSE
 10
0
 20
0
 30
0
 70
128
 71
407
 72
415
 73
416
 74
408
 0
VERTEX
 8
HOUSE
 10
0
 20
0
 30
0
 70
128
 71
408
 72
416
 73
409
 74
401
 0
VERTEX
 8
HOUSE
 10
0
 20
0
 30
0
 70
128
 71
409
 72
416
 73
413
 74
412
 0
VERTEX
 8
HOUSE
 10
0
 20
0
 30
0
 70
128
 71
422
 72
421
 73
423
 74
424
 0
VERTEX
 8
HOUSE
 10
0
 20
0
 30
0
 70
128
 71
418
 72
425
 73
439
 74
417
 0
VERTEX
 8
HOUSE
 10
0
 20
0
 30
0
 70
128
 71
430
 72
435
 73
434
 74
431
 0
VERTEX
 8
HOUSE
 10
0
 20
0
 30
0
 70
128
 71
427
 72
440
 73
421
 74
422
 0
VERTEX
 8
HOUSE
 10
0
 20
0
 30
0
 70
128
 71
432
 72
438
 73
439
 74
431
 0
VERTEX
 8
HOUSE
 10
0
 20
0
 30
0
 70
128
 71
428
 72
427
 73
422
 74
424
 0
VERTEX
 8
HOUSE
 10
0
 20
0
 30
0
 70
128
 71
420
 72
438
 73
426
 74
419
 0
VERTEX
 8
HOUSE
 10
0
 20
0
 30
0
 70
128
 71
432
 72
437
 73
436
 74
433
 0
VERTEX
 8
HOUSE
 10
0
 20
0
 30
0
 70
128
 71
428
 72
424
 73
423
 74
429
 0
VERTEX
 8
HOUSE
 10
0
 20
0
 30
0
 70
128
 71
419
 72
426
 73
425
 74
418
 0
VERTEX
 8
HOUSE
 10
0
 20
0
 30
0
 70
128
 71
430
 72
433
 73
436
 74
435
 0
VERTEX
 8
HOUSE
 10
0
 20
0
 30
0
 70
128
 71
440
 72
429
 73
423
 74
421
 0
VERTEX
 8
HOUSE
 10
0
 20
0
 30
0
 70
128
 71
425
 72
430
 73
431
 74
439
 0
VERTEX
 8
HOUSE
 10
0
 20
0
 30
0
 70
128
 71
438
 72
432
 73
433
 74
426
 0
VERTEX
 8
HOUSE
 10
0
 20
0
 30
0
 70
128
 71
425
 72
426
 73
433
 74
430
 0
VERTEX
 8
HOUSE
 10
0
 20
0
 30
0
 70
128
 71
440
 72
427
 73
434
 74
435
 0
VERTEX
 8
HOUSE
 10
0
 20
0
 30
0
 70
128
 71
440
 72
435
 73
436
 74
429
 0
VERTEX
 8
HOUSE
 10
0
 20
0
 30
0
 70
128
 71
429
 72
436
 73
437
 74
428
 0
VERTEX
 8
HOUSE
 10
0
 20
0
 30
0
 70
128
 71
427
 72
428
 73
437
 74
434
 0
VERTEX
 8
HOUSE
 10
0
 20
0
 30
0
 70
128
 71
417
 72
439
 73
438
 74
420
 0
VERTEX
 8
HOUSE
 10
0
 20
0
 30
0
 70
128
 71
441
 72
449
 73
450
 74
442
 0
VERTEX
 8
HOUSE
 10
0
 20
0
 30
0
 70
128
 71
442
 72
450
 73
451
 74
443
 0
VERTEX
 8
HOUSE
 10
0
 20
0
 30
0
 70
128
 71
443
 72
451
 73
452
 74
444
 0
VERTEX
 8
HOUSE
 10
0
 20
0
 30
0
 70
128
 71
444
 72
452
 73
453
 74
445
 0
VERTEX
 8
HOUSE
 10
0
 20
0
 30
0
 70
128
 71
445
 72
453
 73
454
 74
446
 0
VERTEX
 8
HOUSE
 10
0
 20
0
 30
0
 70
128
 71
446
 72
454
 73
455
 74
447
 0
VERTEX
 8
HOUSE
 10
0
 20
0
 30
0
 70
128
 71
447
 72
455
 73
456
 74
448
 0
VERTEX
 8
HOUSE
 10
0
 20
0
 30
0
 70
128
 71
448
 72
456
 73
449
 74
441
 0
VERTEX
 8
HOUSE
 10
0
 20
0
 30
0
 70
128
 71
449
 72
456
 73
453
 74
452
 0
VERTEX
 8
HOUSE
 10
0
 20
0
 30
0
 70
128
 71
457
 72
465
 73
466
 74
458
 0
VERTEX
 8
HOUSE
 10
0
 20
0
 30
0
 70
128
 71
458
 72
466
 73
467
 74
459
 0
VERTEX
 8
HOUSE
 10
0
 20
0
 30
0
 70
128
 71
459
 72
467
 73
468
 74
460
 0
VERTEX
 8
HOUSE
 10
0
 20
0
 30
0
 70
128
 71
460
 72
468
 73
469
 74
461
 0
VERTEX
 8
HOUSE
 10
0
 20
0
 30
0
 70
128
 71
461
 72
469
 73
470
 74
462
 0
VERTEX
 8
HOUSE
 10
0
 20
0
 30
0
 70
128
 71
462
 72
470
 73
471
 74
463
 0
VERTEX
 8
HOUSE
 10
0
 20
0
 30
0
 70
128
 71
463
 72
471
 73
472
 74
464
 0
VERTEX
 8
HOUSE
 10
0
 20
0
 30
0
 70
128
 71
464
 72
472
 73
465
 74
457
 0
VERTEX
 8
HOUSE
 10
0
 20
0
 30
0
 70
128
 71
465
 72
472
 73
469
 74
468
 0
VERTEX
 8
HOUSE
 10
0
 20
0
 30
0
 70
128
 71
469
 72
472
 73
471
 74
470
 0
VERTEX
 8
HOUSE
 10
0
 20
0
 30
0
 70
128
 71
465
 72
468
 73
467
 74
466
 0
VERTEX
 8
HOUSE
 10
0
 20
0
 30
0
 70
128
 71
453
 72
456
 73
455
 74
454
 0
VERTEX
 8
HOUSE
 10
0
 20
0
 30
0
 70
128
 71
449
 72
452
 73
451
 74
450
 0
VERTEX
 8
HOUSE
 10
0
 20
0
 30
0
 70
128
 71
413
 72
416
 73
415
 74
414
 0
VERTEX
 8
HOUSE
 10
0
 20
0
 30
0
 70
128
 71
409
 72
412
 73
411
 74
410
 0
VERTEX
 8
HOUSE
 10
0
 20
0
 30
0
 70
128
 71
432
 72
431
 73
434
 74
437
 0
VERTEX
 8
HOUSE
 10
0
 20
0
 30
0
 70
128
 71
488
 72
482
 73
486
 74
485
 0
VERTEX
 8
HOUSE
 10
0
 20
0
 30
0
 70
128
 71
481
 72
487
 73
486
 74
482
 0
VERTEX
 8
HOUSE
 10
0
 20
0
 30
0
 70
128
 71
480
 72
479
 73
474
 74
475
 0
VERTEX
 8
HOUSE
 10
0
 20
0
 30
0
 70
128
 71
479
 72
478
 73
473
 74
474
 0
VERTEX
 8
HOUSE
 10
0
 20
0
 30
0
 70
128
 71
477
 72
476
 73
473
 74
478
 0
VERTEX
 8
HOUSE
 10
0
 20
0
 30
0
 70
128
 71
485
 72
484
 73
483
 74
488
 0
VERTEX
 8
HOUSE
 10
0
 20
0
 30
0
 70
128
 71
480
 72
484
 73
485
 74
479
 0
VERTEX
 8
HOUSE
 10
0
 20
0
 30
0
 70
128
 71
479
 72
485
 73
486
 74
478
 0
VERTEX
 8
HOUSE
 10
0
 20
0
 30
0
 70
128
 71
486
 72
487
 73
477
 74
478
 0
VERTEX
 8
HOUSE
 10
0
 20
0
 30
0
 70
128
 71
481
 72
482
 73
488
 74
483
 0
VERTEX
 8
HOUSE
 10
0
 20
0
 30
0
 70
128
 71
489
 72
505
 73
506
 74
490
 0
VERTEX
 8
HOUSE
 10
0
 20
0
 30
0
 70
128
 71
497
 72
493
 73
494
 74
496
 0
VERTEX
 8
HOUSE
 10
0
 20
0
 30
0
 70
128
 71
501
 72
498
 73
499
 74
500
 0
VERTEX
 8
HOUSE
 10
0
 20
0
 30
0
 70
128
 71
490
 72
491
 73
494
 74
493
 0
VERTEX
 8
HOUSE
 10
0
 20
0
 30
0
 70
128
 71
495
 72
498
 73
501
 74
502
 0
VERTEX
 8
HOUSE
 10
0
 20
0
 30
0
 70
128
 71
503
 72
504
 73
500
 74
499
 0
VERTEX
 8
HOUSE
 10
0
 20
0
 30
0
 70
128
 71
492
 72
489
 73
497
 74
496
 0
VERTEX
 8
HOUSE
 10
0
 20
0
 30
0
 70
128
 71
489
 72
490
 73
493
 74
497
 0
VERTEX
 8
HOUSE
 10
0
 20
0
 30
0
 70
128
 71
496
 72
494
 73
501
 74
500
 0
VERTEX
 8
HOUSE
 10
0
 20
0
 30
0
 70
128
 71
501
 72
494
 73
491
 74
502
 0
VERTEX
 8
HOUSE
 10
0
 20
0
 30
0
 70
128
 71
492
 72
496
 73
500
 74
504
 0
VERTEX
 8
HOUSE
 10
0
 20
0
 30
0
 70
128
 71
125
 72
224
 73
189
 74
190
 0
VERTEX
 8
HOUSE
 10
0
 20
0
 30
0
 70
128
 71
63
 72
225
 73
145
 74
62
 0
VERTEX
 8
HOUSE
 10
0
 20
0
 30
0
 70
128
 71
507
 72
517
 73
518
 74
508
 0
VERTEX
 8
HOUSE
 10
0
 20
0
 30
0
 70
128
 71
508
 72
518
 73
519
 74
509
 0
VERTEX
 8
HOUSE
 10
0
 20
0
 30
0
 70
128
 71
509
 72
519
 73
520
 74
510
 0
VERTEX
 8
HOUSE
 10
0
 20
0
 30
0
 70
128
 71
510
 72
520
 73
521
 74
511
 0
VERTEX
 8
HOUSE
 10
0
 20
0
 30
0
 70
128
 71
511
 72
521
 73
522
 74
512
 0
VERTEX
 8
HOUSE
 10
0
 20
0
 30
0
 70
128
 71
512
 72
522
 73
523
 74
513
 0
VERTEX
 8
HOUSE
 10
0
 20
0
 30
0
 70
128
 71
513
 72
523
 73
524
 74
514
 0
VERTEX
 8
HOUSE
 10
0
 20
0
 30
0
 70
128
 71
514
 72
524
 73
525
 74
515
 0
VERTEX
 8
HOUSE
 10
0
 20
0
 30
0
 70
128
 71
515
 72
525
 73
526
 74
516
 0
VERTEX
 8
HOUSE
 10
0
 20
0
 30
0
 70
128
 71
516
 72
526
 73
517
 74
507
 0
VERTEX
 8
HOUSE
 10
0
 20
0
 30
0
 70
128
 71
517
 72
527
 73
528
 74
518
 0
VERTEX
 8
HOUSE
 10
0
 20
0
 30
0
 70
128
 71
518
 72
528
 73
529
 74
519
 0
VERTEX
 8
HOUSE
 10
0
 20
0
 30
0
 70
128
 71
519
 72
529
 73
530
 74
520
 0
VERTEX
 8
HOUSE
 10
0
 20
0
 30
0
 70
128
 71
520
 72
530
 73
531
 74
521
 0
VERTEX
 8
HOUSE
 10
0
 20
0
 30
0
 70
128
 71
521
 72
531
 73
532
 74
522
 0
VERTEX
 8
HOUSE
 10
0
 20
0
 30
0
 70
128
 71
522
 72
532
 73
533
 74
523
 0
VERTEX
 8
HOUSE
 10
0
 20
0
 30
0
 70
128
 71
523
 72
533
 73
534
 74
524
 0
VERTEX
 8
HOUSE
 10
0
 20
0
 30
0
 70
128
 71
524
 72
534
 73
535
 74
525
 0
VERTEX
 8
HOUSE
 10
0
 20
0
 30
0
 70
128
 71
525
 72
535
 73
536
 74
526
 0
VERTEX
 8
HOUSE
 10
0
 20
0
 30
0
 70
128
 71
526
 72
536
 73
527
 74
517
 0
VERTEX
 8
HOUSE
 10
0
 20
0
 30
0
 70
128
 71
527
 72
537
 73
538
 74
528
 0
VERTEX
 8
HOUSE
 10
0
 20
0
 30
0
 70
128
 71
528
 72
538
 73
539
 74
529
 0
VERTEX
 8
HOUSE
 10
0
 20
0
 30
0
 70
128
 71
529
 72
539
 73
540
 74
530
 0
VERTEX
 8
HOUSE
 10
0
 20
0
 30
0
 70
128
 71
530
 72
540
 73
541
 74
531
 0
VERTEX
 8
HOUSE
 10
0
 20
0
 30
0
 70
128
 71
531
 72
541
 73
542
 74
532
 0
VERTEX
 8
HOUSE
 10
0
 20
0
 30
0
 70
128
 71
532
 72
542
 73
543
 74
533
 0
VERTEX
 8
HOUSE
 10
0
 20
0
 30
0
 70
128
 71
533
 72
543
 73
544
 74
534
 0
VERTEX
 8
HOUSE
 10
0
 20
0
 30
0
 70
128
 71
534
 72
544
 73
545
 74
535
 0
VERTEX
 8
HOUSE
 10
0
 20
0
 30
0
 70
128
 71
535
 72
545
 73
546
 74
536
 0
VERTEX
 8
HOUSE
 10
0
 20
0
 30
0
 70
128
 71
536
 72
546
 73
537
 74
527
 0
VERTEX
 8
HOUSE
 10
0
 20
0
 30
0
 70
128
 71
516
 72
507
 73
508
 74
515
 0
VERTEX
 8
HOUSE
 10
0
 20
0
 30
0
 70
128
 71
537
 72
546
 73
545
 74
544
 0
VERTEX
 8
HOUSE
 10
0
 20
0
 30
0
 70
128
 71
547
 72
550
 73
549
 74
548
 0
VERTEX
 8
HOUSE
 10
0
 20
0
 30
0
 70
128
 71
548
 72
549
 73
552
 74
551
 0
VERTEX
 8
HOUSE
 10
0
 20
0
 30
0
 70
128
 71
551
 72
552
 73
554
 74
553
 0
VERTEX
 8
HOUSE
 10
0
 20
0
 30
0
 70
128
 71
553
 72
554
 73
556
 74
555
 0
VERTEX
 8
HOUSE
 10
0
 20
0
 30
0
 70
128
 71
555
 72
556
 73
558
 74
557
 0
VERTEX
 8
HOUSE
 10
0
 20
0
 30
0
 70
128
 71
557
 72
558
 73
560
 74
559
 0
VERTEX
 8
HOUSE
 10
0
 20
0
 30
0
 70
128
 71
559
 72
560
 73
562
 74
561
 0
VERTEX
 8
HOUSE
 10
0
 20
0
 30
0
 70
128
 71
561
 72
562
 73
564
 74
563
 0
VERTEX
 8
HOUSE
 10
0
 20
0
 30
0
 70
128
 71
563
 72
564
 73
566
 74
565
 0
VERTEX
 8
HOUSE
 10
0
 20
0
 30
0
 70
128
 71
565
 72
566
 73
550
 74
547
 0
VERTEX
 8
HOUSE
 10
0
 20
0
 30
0
 70
128
 71
550
 72
568
 73
567
 74
549
 0
VERTEX
 8
HOUSE
 10
0
 20
0
 30
0
 70
128
 71
549
 72
567
 73
569
 74
552
 0
VERTEX
 8
HOUSE
 10
0
 20
0
 30
0
 70
128
 71
552
 72
569
 73
570
 74
554
 0
VERTEX
 8
HOUSE
 10
0
 20
0
 30
0
 70
128
 71
554
 72
570
 73
571
 74
556
 0
VERTEX
 8
HOUSE
 10
0
 20
0
 30
0
 70
128
 71
556
 72
571
 73
572
 74
558
 0
VERTEX
 8
HOUSE
 10
0
 20
0
 30
0
 70
128
 71
558
 72
572
 73
573
 74
560
 0
VERTEX
 8
HOUSE
 10
0
 20
0
 30
0
 70
128
 71
560
 72
573
 73
574
 74
562
 0
VERTEX
 8
HOUSE
 10
0
 20
0
 30
0
 70
128
 71
562
 72
574
 73
575
 74
564
 0
VERTEX
 8
HOUSE
 10
0
 20
0
 30
0
 70
128
 71
564
 72
575
 73
576
 74
566
 0
VERTEX
 8
HOUSE
 10
0
 20
0
 30
0
 70
128
 71
566
 72
576
 73
568
 74
550
 0
VERTEX
 8
HOUSE
 10
0
 20
0
 30
0
 70
128
 71
568
 72
578
 73
577
 74
567
 0
VERTEX
 8
HOUSE
 10
0
 20
0
 30
0
 70
128
 71
567
 72
577
 73
579
 74
569
 0
VERTEX
 8
HOUSE
 10
0
 20
0
 30
0
 70
128
 71
569
 72
579
 73
580
 74
570
 0
VERTEX
 8
HOUSE
 10
0
 20
0
 30
0
 70
128
 71
570
 72
580
 73
581
 74
571
 0
VERTEX
 8
HOUSE
 10
0
 20
0
 30
0
 70
128
 71
571
 72
581
 73
582
 74
572
 0
VERTEX
 8
HOUSE
 10
0
 20
0
 30
0
 70
128
 71
572
 72
582
 73
583
 74
573
 0
VERTEX
 8
HOUSE
 10
0
 20
0
 30
0
 70
128
 71
573
 72
583
 73
584
 74
574
 0
VERTEX
 8
HOUSE
 10
0
 20
0
 30
0
 70
128
 71
574
 72
584
 73
585
 74
575
 0
VERTEX
 8
HOUSE
 10
0
 20
0
 30
0
 70
128
 71
575
 72
585
 73
586
 74
576
 0
VERTEX
 8
HOUSE
 10
0
 20
0
 30
0
 70
128
 71
576
 72
586
 73
578
 74
568
 0
VERTEX
 8
HOUSE
 10
0
 20
0
 30
0
 70
128
 71
565
 72
547
 73
561
 74
563
 0
VERTEX
 8
HOUSE
 10
0
 20
0
 30
0
 70
128
 71
578
 72
586
 73
585
 74
584
 0
VERTEX
 8
HOUSE
 10
0
 20
0
 30
0
 70
128
 71
587
 72
590
 73
589
 74
588
 0
VERTEX
 8
HOUSE
 10
0
 20
0
 30
0
 70
128
 71
588
 72
589
 73
592
 74
591
 0
VERTEX
 8
HOUSE
 10
0
 20
0
 30
0
 70
128
 71
591
 72
592
 73
594
 74
593
 0
VERTEX
 8
HOUSE
 10
0
 20
0
 30
0
 70
128
 71
593
 72
594
 73
596
 74
595
 0
VERTEX
 8
HOUSE
 10
0
 20
0
 30
0
 70
128
 71
595
 72
596
 73
598
 74
597
 0
VERTEX
 8
HOUSE
 10
0
 20
0
 30
0
 70
128
 71
597
 72
598
 73
600
 74
599
 0
VERTEX
 8
HOUSE
 10
0
 20
0
 30
0
 70
128
 71
599
 72
600
 73
602
 74
601
 0
VERTEX
 8
HOUSE
 10
0
 20
0
 30
0
 70
128
 71
601
 72
602
 73
604
 74
603
 0
VERTEX
 8
HOUSE
 10
0
 20
0
 30
0
 70
128
 71
603
 72
604
 73
606
 74
605
 0
VERTEX
 8
HOUSE
 10
0
 20
0
 30
0
 70
128
 71
605
 72
606
 73
590
 74
587
 0
VERTEX
 8
HOUSE
 10
0
 20
0
 30
0
 70
128
 71
590
 72
608
 73
607
 74
589
 0
VERTEX
 8
HOUSE
 10
0
 20
0
 30
0
 70
128
 71
589
 72
607
 73
609
 74
592
 0
VERTEX
 8
HOUSE
 10
0
 20
0
 30
0
 70
128
 71
592
 72
609
 73
610
 74
594
 0
VERTEX
 8
HOUSE
 10
0
 20
0
 30
0
 70
128
 71
594
 72
610
 73
611
 74
596
 0
VERTEX
 8
HOUSE
 10
0
 20
0
 30
0
 70
128
 71
596
 72
611
 73
612
 74
598
 0
VERTEX
 8
HOUSE
 10
0
 20
0
 30
0
 70
128
 71
598
 72
612
 73
613
 74
600
 0
VERTEX
 8
HOUSE
 10
0
 20
0
 30
0
 70
128
 71
600
 72
613
 73
614
 74
602
 0
VERTEX
 8
HOUSE
 10
0
 20
0
 30
0
 70
128
 71
602
 72
614
 73
615
 74
604
 0
VERTEX
 8
HOUSE
 10
0
 20
0
 30
0
 70
128
 71
604
 72
615
 73
616
 74
606
 0
VERTEX
 8
HOUSE
 10
0
 20
0
 30
0
 70
128
 71
606
 72
616
 73
608
 74
590
 0
VERTEX
 8
HOUSE
 10
0
 20
0
 30
0
 70
128
 71
608
 72
618
 73
617
 74
607
 0
VERTEX
 8
HOUSE
 10
0
 20
0
 30
0
 70
128
 71
607
 72
617
 73
619
 74
609
 0
VERTEX
 8
HOUSE
 10
0
 20
0
 30
0
 70
128
 71
609
 72
619
 73
620
 74
610
 0
VERTEX
 8
HOUSE
 10
0
 20
0
 30
0
 70
128
 71
610
 72
620
 73
621
 74
611
 0
VERTEX
 8
HOUSE
 10
0
 20
0
 30
0
 70
128
 71
611
 72
621
 73
622
 74
612
 0
VERTEX
 8
HOUSE
 10
0
 20
0
 30
0
 70
128
 71
612
 72
622
 73
623
 74
613
 0
VERTEX
 8
HOUSE
 10
0
 20
0
 30
0
 70
128
 71
613
 72
623
 73
624
 74
614
 0
VERTEX
 8
HOUSE
 10
0
 20
0
 30
0
 70
128
 71
614
 72
624
 73
625
 74
615
 0
VERTEX
 8
HOUSE
 10
0
 20
0
 30
0
 70
128
 71
615
 72
625
 73
626
 74
616
 0
VERTEX
 8
HOUSE
 10
0
 20
0
 30
0
 70
128
 71
616
 72
626
 73
618
 74
608
 0
VERTEX
 8
HOUSE
 10
0
 20
0
 30
0
 70
128
 71
605
 72
587
 73
597
 74
599
 0
VERTEX
 8
HOUSE
 10
0
 20
0
 30
0
 70
128
 71
618
 72
626
 73
623
 74
622
 0
VERTEX
 8
HOUSE
 10
0
 20
0
 30
0
 70
128
 71
539
 72
542
 73
541
 74
540
 0
VERTEX
 8
HOUSE
 10
0
 20
0
 30
0
 70
128
 71
538
 72
543
 73
542
 74
539
 0
VERTEX
 8
HOUSE
 10
0
 20
0
 30
0
 70
128
 71
537
 72
544
 73
543
 74
538
 0
VERTEX
 8
HOUSE
 10
0
 20
0
 30
0
 70
128
 71
579
 72
582
 73
581
 74
580
 0
VERTEX
 8
HOUSE
 10
0
 20
0
 30
0
 70
128
 71
577
 72
583
 73
582
 74
579
 0
VERTEX
 8
HOUSE
 10
0
 20
0
 30
0
 70
128
 71
578
 72
584
 73
583
 74
577
 0
VERTEX
 8
HOUSE
 10
0
 20
0
 30
0
 70
128
 71
617
 72
621
 73
620
 74
619
 0
VERTEX
 8
HOUSE
 10
0
 20
0
 30
0
 70
128
 71
618
 72
622
 73
621
 74
617
 0
VERTEX
 8
HOUSE
 10
0
 20
0
 30
0
 70
128
 71
623
 72
626
 73
625
 74
624
 0
VERTEX
 8
HOUSE
 10
0
 20
0
 30
0
 70
128
 71
557
 72
551
 73
553
 74
555
 0
VERTEX
 8
HOUSE
 10
0
 20
0
 30
0
 70
128
 71
559
 72
548
 73
551
 74
557
 0
VERTEX
 8
HOUSE
 10
0
 20
0
 30
0
 70
128
 71
561
 72
547
 73
548
 74
559
 0
VERTEX
 8
HOUSE
 10
0
 20
0
 30
0
 70
128
 71
595
 72
588
 73
591
 74
593
 0
VERTEX
 8
HOUSE
 10
0
 20
0
 30
0
 70
128
 71
597
 72
587
 73
588
 74
595
 0
VERTEX
 8
HOUSE
 10
0
 20
0
 30
0
 70
128
 71
605
 72
599
 73
601
 74
603
 0
VERTEX
 8
HOUSE
 10
0
 20
0
 30
0
 70
128
 71
515
 72
508
 73
509
 74
514
 0
VERTEX
 8
HOUSE
 10
0
 20
0
 30
0
 70
128
 71
514
 72
509
 73
510
 74
513
 0
VERTEX
 8
HOUSE
 10
0
 20
0
 30
0
 70
128
 71
513
 72
510
 73
511
 74
512
 0
SEQEND
 0
ENDSEC
 0
EOF
